<?xml version="1.0" encoding="UTF-8"?>
<svg id="Layer_1" data-name="Layer 1" xmlns="http://www.w3.org/2000/svg" width="64" height="64" viewBox="0 0 64 64">
  <defs>
    <style>
      .cls-1 {
        fill: #e2e8f0;
      }

      .cls-1, .cls-2 {
        stroke-width: 0px;
      }

      .cls-2 {
        fill: rgba(226, 232, 240, 0);
      }
    </style>
  </defs>
  <path class="cls-1" d="M16,26.05c.17-2.7,1.45-5.05,3.85-7.05l.1-.1c3.37-2.6,7.38-3.9,12.05-3.9s8.83,1.33,12.2,4h-.05c2.37,2,3.65,4.32,3.85,6.95v.1c-.2,2.63-1.47,4.92-3.8,6.85l-.2.15c-3.3,2.63-7.3,3.95-12,3.95s-8.83-1.35-12.2-4.05l-.1-.05c-2.27-1.93-3.5-4.2-3.7-6.8v-.05M14.95,35.3c.7.83,1.52,1.62,2.45,2.35,4.03,3.23,8.9,4.85,14.6,4.85s10.55-1.6,14.55-4.8l.05-.05c3.53-2.83,5.33-6.25,5.4-10.25-.1-4-1.92-7.43-5.45-10.3-4-3.2-8.85-4.8-14.55-4.8s-10.57,1.6-14.6,4.8h.05l-1.55,1.45c-.2-.83-.63-1.58-1.3-2.25-.43-.43-.92-.75-1.45-.95l1.85-1.7c4.7-3.77,10.37-5.65,17-5.65s12.32,1.88,16.95,5.65c4.7,3.83,7.05,8.42,7.05,13.75v3.25c0,5.37-2.35,9.92-7.05,13.65-1.83,1.5-3.82,2.7-5.95,3.6v2.1c0,1.67-1.08,3.08-3.25,4.25-2.13,1.17-4.72,1.75-7.75,1.75s-5.58-.58-7.75-1.75-3.25-2.58-3.25-4.25v-2.1c-2.13-.9-4.13-2.1-6-3.6-2.9-2.33-4.9-4.97-6-7.9.7.4,1.48.6,2.35.6,1.27,0,2.32-.42,3.15-1.25l.45-.45M3.5,27.15c-.33-.3-.5-.68-.5-1.15,0-.43.17-.82.5-1.15l6.65-6.4c.2-.2.45-.33.75-.4l.45-.05c.47,0,.85.15,1.15.45.33.33.5.72.5,1.15v12.8c0,.47-.17.85-.5,1.15l-1.15.45c-.47,0-.87-.15-1.2-.45l-6.65-6.4"/>
  <path class="cls-2" d="M3.5,27.15l6.65,6.4c.33.3.73.45,1.2.45l1.15-.45c.33-.3.5-.68.5-1.15v-12.8c0-.43-.17-.82-.5-1.15-.3-.3-.68-.45-1.15-.45l-.45.05c-.3.07-.55.2-.75.4l-6.65,6.4c-.33.33-.5.72-.5,1.15,0,.47.17.85.5,1.15M16,26.1v6.3c0,1.13-.35,2.1-1.05,2.9l-.45.45c-.83.83-1.88,1.25-3.15,1.25-.87,0-1.65-.2-2.35-.6l-.85-.65-.1-.05-6.65-6.4c-.93-.87-1.4-1.97-1.4-3.3-.03-1.23.42-2.33,1.35-3.3h.05l6.65-6.4.1-.1c.9-.8,1.97-1.2,3.2-1.2.67,0,1.27.12,1.8.35.53.2,1.02.52,1.45.95.67.67,1.1,1.42,1.3,2.25l.1,1.05v6.5"/>
</svg>