<?xml version="1.0" encoding="UTF-8"?>
<svg id="Layer_1" data-name="Layer 1" xmlns="http://www.w3.org/2000/svg" width="64" height="64" viewBox="0 0 64 64">
  <defs>
    <style>
      .cls-1 {
        fill: #e2e8f0;
        stroke-width: 0px;
      }
    </style>
  </defs>
  <path class="cls-1" d="M35.89,8.01h-7.79c-4.34,0-7.86,3.52-7.86,7.86v32.27c0,4.34,3.52,7.86,7.86,7.86h7.79c4.34,0,7.86-3.52,7.86-7.86V15.86c0-4.34-3.52-7.86-7.86-7.86ZM36.99,26.38c0,.15-.02.3-.07.44-.05.14-.12.28-.2.41l-5.93,8.46h6.01v2.25h-9.74v-1.13c0-.13.02-.26.07-.39s.11-.25.19-.36l5.94-8.49h-5.72v-2.25h9.44v1.06Z"/>
</svg>