<?xml version="1.0" encoding="UTF-8"?>
<svg id="Layer_1" data-name="Layer 1" xmlns="http://www.w3.org/2000/svg" width="64" height="64" viewBox="0 0 64 64">
  <defs>
    <style>
      .cls-1 {
        fill: #e2e8f0;
        stroke-width: 0px;
      }
    </style>
  </defs>
  <path class="cls-1" d="M31.46,26h-1.04v3.29h1.04c.35,0,.65-.04.9-.13.25-.09.45-.21.61-.37s.27-.34.34-.55c.07-.21.11-.44.11-.68,0-.49-.16-.87-.48-1.14-.32-.27-.81-.41-1.47-.41Z"/>
  <path class="cls-1" d="M55.86,25.19l-8.82-3.95c-.42-.19-.87-.28-1.32-.28H9.47c-1.79,0-3.24,1.45-3.24,3.24v12.28c0,1.79,1.45,3.24,3.24,3.24h36.24c.46,0,.91.1,1.32.28l6.17,2.77c2.14.96,4.56-.61,4.56-2.96v-11.66c0-1.28-.75-2.43-1.91-2.96ZM34.6,35.17c-.43,0-.74-.16-.93-.49l-1.84-3.22c-.08-.14-.18-.24-.29-.3s-.26-.09-.46-.09h-.66v4.11h-2.57v-11.1h3.61c.8,0,1.49.08,2.05.25s1.03.4,1.38.69c.36.29.62.64.78,1.04.16.4.24.84.24,1.31,0,.36-.05.7-.14,1.02-.1.32-.24.62-.43.89-.19.27-.43.51-.7.73-.28.21-.6.39-.96.53.17.09.33.19.48.32s.28.28.39.46l2.36,3.86h-2.33Z"/>
</svg>