<?xml version="1.0" encoding="UTF-8"?>
<svg id="Layer_1" data-name="Layer 1" xmlns="http://www.w3.org/2000/svg" width="64" height="64" viewBox="0 0 64 64">
  <defs>
    <style>
      .cls-1 {
        fill: #f87171;
        stroke-width: 0px;
      }
    </style>
  </defs>
  <path class="cls-1" d="M39.52,26.84h-.88v4.3h.88c.3,0,.55-.06.76-.17s.38-.28.52-.48c.13-.21.23-.45.29-.72.06-.28.09-.57.09-.89,0-.64-.13-1.14-.41-1.49-.27-.36-.69-.54-1.26-.54Z"/>
  <path class="cls-1" d="M31.11,28.42c-.08-.34-.15-.71-.22-1.11-.07.41-.14.78-.21,1.13-.07.35-.14.64-.21.9l-.87,3.96h2.58l-.87-3.98c-.06-.25-.12-.55-.2-.89Z"/>
  <path class="cls-1" d="M32,8c-13.25,0-24,10.75-24,24s10.75,24,24,24,24-10.75,24-24-10.75-24-24-24ZM18.82,36.06c-.15.58-.37,1.09-.66,1.53-.29.43-.64.78-1.06,1.03-.42.25-.9.37-1.44.37-.29,0-.59-.05-.9-.14-.31-.09-.6-.22-.89-.39-.29-.17-.55-.37-.8-.6-.25-.23-.47-.49-.66-.78l.65-1.57c.05-.12.11-.22.2-.29.09-.07.18-.11.28-.11.13,0,.26.06.39.19.13.13.28.27.45.42.17.15.36.29.57.42.22.13.47.19.77.19.4,0,.71-.13.93-.4.22-.27.33-.7.33-1.28,0-.34-.06-.61-.18-.83-.12-.21-.28-.39-.48-.53-.2-.14-.42-.26-.67-.37-.25-.11-.51-.22-.77-.35s-.52-.29-.77-.48-.47-.44-.67-.75c-.2-.31-.36-.69-.48-1.16-.12-.46-.18-1.03-.18-1.71,0-.54.07-1.08.21-1.59.14-.52.35-.98.63-1.38s.62-.73,1.02-.97.86-.36,1.38-.36c.29,0,.57.03.85.1.27.07.54.17.78.31.25.14.48.3.69.49.21.19.41.4.57.64l-.55,1.56c-.06.16-.13.28-.2.36-.07.08-.16.12-.28.12-.1,0-.21-.05-.32-.14-.11-.1-.24-.2-.39-.32-.15-.12-.31-.23-.5-.32s-.4-.14-.64-.14c-.41,0-.72.13-.92.4-.2.27-.3.63-.3,1.09,0,.29.06.53.18.73.12.19.28.36.48.5s.42.27.67.38c.25.12.51.25.78.39.26.14.52.31.78.5.25.19.48.44.68.74.2.3.36.66.48,1.09.12.43.18.95.18,1.55,0,.67-.08,1.3-.23,1.88ZM24.34,38.83h-2.19v-11.85h-2.66v-2.67h7.52v2.67h-2.66v11.85ZM33.97,38.83c-.19,0-.35-.07-.47-.2-.12-.14-.21-.31-.26-.52l-.56-2.53h-3.6l-.56,2.53c-.04.19-.13.35-.25.5s-.28.22-.46.22h-1.71l3.66-14.52h2.25l3.66,14.52h-1.7ZM42.19,38.83c-.37,0-.63-.21-.79-.64l-1.57-4.22c-.07-.19-.15-.32-.24-.4-.09-.08-.22-.12-.39-.12h-.56v5.37h-2.19v-14.52h3.08c.68,0,1.27.11,1.75.32.48.22.88.52,1.18.9.31.39.53.84.67,1.37.14.52.21,1.1.21,1.71,0,.47-.04.92-.12,1.34-.08.42-.2.81-.37,1.16-.16.36-.36.67-.6.95-.24.28-.51.51-.81.69.15.11.28.25.41.42s.24.37.33.61l2.01,5.05h-1.99ZM48.89,26.99v11.85h-2.19v-11.85h-2.66v-2.67h7.52v2.67h-2.66Z"/>
</svg>