<?xml version="1.0" encoding="UTF-8"?>
<svg id="Layer_1" data-name="Layer 1" xmlns="http://www.w3.org/2000/svg" width="6.36in" height="4.64in" viewBox="0 0 458.2 334.13">
  <defs>
    <style>
      .cls-1, .cls-2 {
        stroke-width: 0px;
		fill: #e2e8f0;
      }

    </style>
  </defs>
  <g>
    <path class="cls-1" d="M81.86,85.71c-17.22,0-31.23,14.01-31.23,31.23s14.01,31.23,31.23,31.23,31.23-14.01,31.23-31.23-14.01-31.23-31.23-31.23Z"/>
    <path class="cls-1" d="M309.1,201.5c-12.51,0-22.68,10.18-22.68,22.68s10.18,22.68,22.68,22.68,22.68-10.18,22.68-22.68-10.18-22.68-22.68-22.68h0Z"/>
  </g>
  <path class="cls-2" d="M455.39,146.75s15.36-65.04-37.48-100.27c0,0-7.23-37.49-60.53-26.65,0,0-30.69-16.73-111.88-19.51l-19.15-.32c-91.4,1.25-125.52,19.83-125.52,19.83-53.29-10.84-60.52,26.65-60.52,26.65C-12.54,81.71,2.82,146.76,2.82,146.76c-5.42,65.94-7.45,187.37,36.58,187.37s43.81-113.75,43.81-113.75c0,0,7.68,12.65,13.55,29.36s49.69,62.33,97.11,12.19c47.43-50.14-18.07-100.27-18.07-100.27v-7.97c15.81-4.36,53.3-5.13,53.3-5.13,0,0,37.49.77,53.3,5.13v7.97s-65.49,50.14-18.07,100.27c47.43,50.14,91.24,4.52,97.11-12.19s13.55-29.36,13.55-29.36c0,0-.22,113.75,43.81,113.75s42.01-121.43,36.58-187.38h.01ZM74.39,167.63l-34.5-20.22-9.32-39.86,20.62-32.03,37.52-9.26,33.49,19.3,10.94,36.48-20,35.73-38.75,9.86h0ZM179.88,213.73c1.17,0,2.13.95,2.13,2.13v16.26c0,1.17-.95,2.12-2.13,2.12h-21.82v21.81c0,1.17-.95,2.12-2.12,2.12h-16.26c-1.17,0-2.12-.95-2.12-2.12v-21.82h-21.82c-1.17,0-2.12-.95-2.12-2.12v-16.26c0-1.17.95-2.13,2.12-2.13h21.82v-21.82c0-1.17.95-2.12,2.12-2.12h16.26c1.17,0,2.12.95,2.12,2.12v21.82h21.82ZM229.11,125.57c-5.91,0-10.7-4.79-10.7-10.7s4.79-10.7,10.7-10.7,10.7,4.79,10.7,10.7-4.79,10.7-10.7,10.7ZM336.98,69.72c1.27-2.94,3.18-4.58,5.39-6.47,3.2-2.74,6.23-3.99,8.63-5.12,1.55-.73,5.26-2.29,9.5-2.88,4.93-.68,9.63-.6,14.44.43,3.14.68,5.16,1.94,5.87,2.58.68.62,2.07,1.85,3.29,4.35,1.2,2.47,1.45,4.83,1.47,5.51.03,1.89-.28,3.94-.96,5.71-.51,1.31-1.65,3.05-3.34,4-.84.47-3.12,1.32-6.77,1.16-4.02-.18-4.4-.02-5.56.03-2.09.08-8.86.47-13.87,4.46-1.15.92-2.14,1.5-3.55,1.98-1.72.58-4.42.84-6.16.72-2.63-.19-3.72-1.15-4.89-1.82-1.58-.92-3.46-4.03-3.89-5.41-1.5-4.74.07-8.4.42-9.22h-.02ZM319.89,128.82c.45,0,.88.1,1.33.13,1.77.13,3.47.48,5.06,1.1,6.74,2.58,11.55,9.07,11.54,16.7,0,1.7-.31,3.31-.76,4.87-.49,1.71-1.17,3.32-2.11,4.78-3.19,4.96-8.73,8.27-15.06,8.27-9.89,0-17.93-8.04-17.93-17.93s8.05-17.93,17.93-17.93h0ZM348.63,229.09l-14.6,26.08c-.32.57-.86.99-1.5,1.15l-28.3,7.2c-.2.05-.39.08-.59.08-.42,0-.84-.11-1.21-.33l-25.19-14.76c-.56-.33-.97-.89-1.12-1.52l-6.8-29.1c-.15-.63-.03-1.3.32-1.84l15.08-23.43c.33-.51.85-.89,1.44-1.03l27.37-6.76c.6-.14,1.24-.06,1.77.25l24.43,14.08c.53.31.92.8,1.1,1.39l8,26.68c.18.62.11,1.29-.2,1.86ZM375,147.52c-14.63,0-26.52-11.89-26.52-26.51s11.9-26.52,26.52-26.52,26.52,11.89,26.52,26.52-11.89,26.51-26.52,26.51ZM441.74,122.8c-.68,3.14-1.94,5.16-2.58,5.86-.62.68-1.86,2.07-4.35,3.28-2.48,1.2-4.84,1.45-5.51,1.46-1.89.03-3.94-.28-5.71-.97-1.31-.51-3.05-1.66-3.99-3.34-.47-.84-1.32-3.12-1.15-6.77.18-4.02.02-4.4-.02-5.56-.08-2.09-.46-8.86-4.45-13.87-.92-1.16-1.5-2.14-1.97-3.55-.58-1.72-.84-4.43-.71-6.16.19-2.63,1.15-3.72,1.82-4.89.92-1.58,4.04-3.45,5.41-3.89,4.74-1.5,8.4.08,9.22.43,2.94,1.27,4.58,3.19,6.47,5.4,2.73,3.2,3.98,6.23,5.12,8.63.73,1.55,2.29,5.26,2.87,9.5.67,4.93.59,9.63-.45,14.44h-.02Z"/>
</svg>