<?xml version="1.0" encoding="UTF-8"?>
<svg id="Capa_1" data-name="Capa 1" xmlns="http://www.w3.org/2000/svg" width="799.99" height="772.93" viewBox="0 0 799.99 772.93">
  <defs>
    <style>
      .cls-1 {
        fill: #e2e8f0;
        stroke-width: 0px;
      }
    </style>
  </defs>
  <path class="cls-1" d="M785.12,226.1c0-61.67-56-111.09-56-111.09v-24.49c-50.33-39.45-163.92-41.49-163.92-41.49l-6.11-9.52C489-2.94,401.62,0,400,.06c-1.61-.06-89-3-159.07,39.45l-6.12,9.52s-113.59,2.04-163.92,41.49v24.49S14.89,164.44,14.89,226.11s-41.72,256.65,14.51,363.65c56.22,107,106.1-83.44,111.54-118.81,5.45-35.36,24.49-78.9,36.27-85.25,0,0,104.29-7.26,108.82,74.36,4.53,81.57,33.97,308.95,113.89,312.85v.02h.15v-.02c79.92-3.91,109.36-231.29,113.89-312.85,4.54-81.62,108.82-74.36,108.82-74.36,11.79,6.35,30.83,49.87,36.27,85.25,5.44,35.37,55.32,225.81,111.54,118.8s14.51-301.99,14.51-363.65h.02ZM211.13,249.22c0,2.2-1.79,4-3.99,4h-38.18v38.17c0,2.2-1.79,3.99-3.99,3.99h-21.76c-2.2,0-4-1.79-4-3.99v-38.17h-38.18c-2.2,0-4-1.79-4-4v-21.76c0-2.2,1.79-4,4-4h38.18v-38.17c0-2.2,1.79-4,4-4h21.76c2.2,0,3.99,1.79,3.99,4v38.17h38.18c2.2,0,3.99,1.79,3.99,4v21.76h0ZM400.01,247.05c14.95,0,27.11,12.16,27.11,27.11s-12.16,27.12-27.11,27.12-27.11-12.17-27.11-27.12,12.16-27.11,27.11-27.11ZM400,471.35c-22.97,0-41.65-18.68-41.65-41.65s18.68-41.65,41.65-41.65,41.65,18.68,41.65,41.65-18.68,41.65-41.65,41.65ZM548.35,294.48c-14.95,0-27.11-12.17-27.11-27.12s12.16-27.11,27.11-27.11,27.11,12.16,27.11,27.11-12.17,27.12-27.11,27.12ZM600.04,351.61c-14.95,0-27.11-12.16-27.11-27.11s12.16-27.11,27.11-27.11,27.11,12.16,27.11,27.11-12.17,27.11-27.11,27.11ZM615.01,235.31c-10.47,0-18.96-8.49-18.96-18.96s8.49-18.96,18.96-18.96,18.96,8.49,18.96,18.96-8.49,18.96-18.96,18.96ZM661.26,281.55c-10.47,0-18.95-8.48-18.95-18.95s8.48-18.95,18.95-18.95,18.95,8.48,18.95,18.95-8.48,18.95-18.95,18.95ZM661.26,189.06c-10.47,0-18.95-8.48-18.95-18.95s8.48-18.95,18.95-18.95,18.95,8.48,18.95,18.95-8.48,18.95-18.95,18.95ZM707.51,235.31c-10.47,0-18.96-8.49-18.96-18.96s8.49-18.96,18.96-18.96,18.96,8.49,18.96,18.96-8.49,18.96-18.96,18.96Z"/>
</svg>