<?xml version="1.0" encoding="UTF-8"?>
<svg id="Layer_1" data-name="Layer 1" xmlns="http://www.w3.org/2000/svg" width="460" height="201" viewBox="0 0 460 201">
  <defs>
    <style>
      .cls-1 {
        fill: #e2e8f0;
        stroke-width: 0px;
      }
    </style>
  </defs>
  <path class="cls-1" d="M450,0H10C4.48,0,0,4.48,0,10v181c0,5.52,4.48,10,10,10h440c5.52,0,10-4.48,10-10V10c0-5.52-4.48-10-10-10ZM124,130.5c0,2.21-1.79,4-4,4h-22v23c0,2.21-1.79,4-4,4h-22c-2.21,0-4-1.79-4-4v-23h-23c-2.21,0-4-1.79-4-4v-22c0-2.21,1.79-4,4-4h23v-22c0-2.21,1.79-4,4-4h22c2.21,0,4,1.79,4,4v22h22c2.21,0,4,1.79,4,4v22ZM197,150.5h-23c-4.42,0-8-3.58-8-8s3.58-8,8-8h23c4.42,0,8,3.58,8,8s-3.58,8-8,8ZM256,150.5h-23c-4.42,0-8-3.58-8-8s3.58-8,8-8h23c4.42,0,8,3.58,8,8s-3.58,8-8,8ZM323.5,162.5c-11.32,0-20.5-9.18-20.5-20.5s9.18-20.5,20.5-20.5,20.5,9.18,20.5,20.5-9.18,20.5-20.5,20.5ZM384.5,162.5c-11.32,0-20.5-9.18-20.5-20.5s9.18-20.5,20.5-20.5,20.5,9.18,20.5,20.5-9.18,20.5-20.5,20.5Z"/>
</svg>