<?xml version="1.0" encoding="UTF-8"?>
<svg id="Layer_1" data-name="Layer 1" xmlns="http://www.w3.org/2000/svg" width="437" height="191.98" viewBox="0 0 437 191.98">
  <defs>
    <style>
      .cls-1 {
        fill: #e2e8f0;
        stroke-width: 0px;
      }
    </style>
  </defs>
  <path class="cls-1" d="M388.05,17.06v-2.51c0-.88-.3-1.73-.85-2.41l-.21-.26c-.39-.48-.88-.87-1.45-1.12l-10.13-4.5c-.17-.08-.34-.14-.52-.19l-13.98-3.94c-2.33-.66-4.73-1.01-7.14-1.05l-55.41-.92c-.62-.01-1.24.13-1.79.41-.75.37-1.36.98-1.73,1.73l-.02.03c-.27.54-.41,1.13-.41,1.73v1.93h-152.87l.46-.06v-2.03c0-.6-.14-1.19-.41-1.73l-.02-.03c-.37-.75-.98-1.36-1.73-1.73-.56-.28-1.17-.42-1.79-.41l-55.41.92c-2.42.04-4.82.39-7.14,1.05l-13.98,3.94c-.18.05-.35.11-.52.19l-10.13,4.5c-.57.25-1.06.64-1.45,1.12l-.21.26c-.55.69-.85,1.54-.85,2.41v2.98C20.38,33.05,0,64.62,0,98.98c0,51.36,41.64,93,93,93,22.9,0,43.86-8.28,60.06-22h130.88c16.2,13.72,37.16,22,60.06,22,51.36,0,93-41.64,93-93,0-35.43-19.81-66.22-48.95-81.92ZM128,109.94c0,1.66-1.34,3-3,3h-20v20c0,1.66-1.34,3-3,3h-20c-1.66,0-3-1.34-3-3v-20h-21c-1.66,0-3-1.34-3-3v-20c0-1.66,1.34-3,3-3h21v-21c0-1.66,1.34-3,3-3h20c1.66,0,3,1.34,3,3v21h20c1.66,0,3,1.34,3,3v20ZM189.26,110.87l-17.34,13.97c-2.94,2.37-7.24,1.91-9.61-1.03h0c-2.37-2.94-1.91-7.24,1.03-9.61l17.34-13.97c2.94-2.37,7.24-1.91,9.61,1.03s1.91,7.24-1.03,9.61ZM236.8,111.13l-17.34,13.97c-2.94,2.37-7.24,1.91-9.61-1.03-2.37-2.94-1.91-7.24,1.03-9.61l17.34-13.97c2.94-2.37,7.24-1.91,9.61,1.03,2.37,2.94,1.91,7.24-1.03,9.61ZM300,116.94c-9.39,0-17-7.61-17-17s7.61-17,17-17,17,7.61,17,17-7.61,17-17,17ZM341,147.94c-9.39,0-17-7.61-17-17s7.61-17,17-17,17,7.61,17,17-7.61,17-17,17ZM341,82.94c-9.39,0-17-7.61-17-17s7.61-17,17-17,17,7.61,17,17-7.61,17-17,17ZM383,116.94c-9.39,0-17-7.61-17-17s7.61-17,17-17,17,7.61,17,17-7.61,17-17,17Z"/>
</svg>