<?xml version="1.0" encoding="UTF-8"?>
<svg id="Layer_1" data-name="Layer 1" xmlns="http://www.w3.org/2000/svg" viewBox="0 0 2000 2000">
  <defs>
    <style>
      .cls-1 {
        fill: #f9f9f9;
      }
    </style>
  </defs>
  <g>
    <path class="cls-1" d="m1838.6,906c1.12,2.77-.93,5.78-3.92,5.72-89.18-1.71-242.42-5.34-387.69-23.12-203.54-24.56-245.37-55.49-252.05-61.93-6.44-6.68-37.37-48.51-61.93-252.2-17.76-145.06-21.41-298.32-23.12-387.45-.06-2.98,2.96-5.04,5.72-3.92l75.08,30.53c2.84,1.16,4.85,3.76,5.25,6.81,48.56,363.64,105.2,454.66,127.46,477.76,23.09,22.26,114.2,78.67,477.91,127.5,3.04.41,5.65,2.41,6.8,5.26l30.47,75.04Z"/>
    <path class="cls-1" d="m1983.4,1262.51l-105.18-258.65c-1.24-3.04-4.15-5.06-7.44-5.13-75.36-1.64-260.58-3.23-434.23-24.49-129-15.56-255.74-39.89-302.71-86.57-46.67-46.96-71-173.7-86.55-302.7-21.29-173.8-22.85-359.2-24.5-434.43-.07-3.16-2.01-5.96-4.94-7.15l-230.5-93.68c-2.88-1.17-5.57,2.06-3.87,4.67,52.48,80.51,82.99,176.65,82.99,279.92,0,129.39-47.9,247.58-126.91,337.86-1.78,2.03-1.69,5.09.22,7l585.27,585.31c2.37,2.37,5.58,3.7,8.93,3.7h645.73c2.82,0,4.81-2.82,3.67-5.65Z"/>
  </g>
  <g>
    <path class="cls-1" d="m161.4,1094c-1.12-2.76.89-5.78,3.87-5.72,89.18,1.71,242.44,5.33,387.74,23.12,203.54,24.56,245.37,55.49,252.05,61.93,6.44,6.68,37.37,48.51,61.93,252.2,17.77,145.08,21.41,298.38,23.12,387.5.06,2.98-2.96,5-5.72,3.87l-75.08-30.53c-2.84-1.16-4.85-3.8-5.26-6.84-48.56-363.61-105.2-454.63-127.46-477.72-23.09-22.26-114.2-78.66-477.88-127.5-3.04-.41-5.68-2.42-6.83-5.26l-30.47-75.04Z"/>
    <path class="cls-1" d="m16.6,737.49l105.18,258.65c1.24,3.04,4.15,5.06,7.44,5.13,75.36,1.64,260.58,3.23,434.23,24.49,129,15.56,255.74,39.89,302.71,86.57,46.67,46.96,71,173.7,86.55,302.7,21.29,173.8,22.85,359.2,24.5,434.43.07,3.16,2.01,5.96,4.94,7.15l230.5,93.68c2.88,1.17,5.57-2.06,3.87-4.67-52.48-80.51-82.99-176.65-82.99-279.92,0-129.39,47.9-247.58,126.91-337.86,1.78-2.03,1.69-5.09-.22-7l-585.27-585.31c-2.37-2.37-5.58-3.7-8.93-3.7H20.27c-2.82,0-4.81,2.82-3.67,5.65Z"/>
  </g>
</svg>