<?xml version="1.0" encoding="UTF-8"?>
<svg id="Layer_1" data-name="Layer 1" xmlns="http://www.w3.org/2000/svg" width="64" height="64" viewBox="0 0 64 64">
  <defs>
    <style>
      .cls-1 {
        fill: #e2e8f0;
        stroke-width: 0px;
      }
    </style>
  </defs>
  <path class="cls-1" d="M32,1.68C15.26,1.68,1.68,15.26,1.68,32s13.57,30.32,30.32,30.32,30.32-13.57,30.32-30.32S48.74,1.68,32,1.68ZM12.06,20.17h2.03v7.12h3.24v1.62h-5.27v-8.74ZM17.34,41.65c-.14.35-.34.66-.61.92s-.59.47-.98.62c-.39.15-.83.22-1.33.22-.27,0-.55-.03-.83-.08-.28-.06-.55-.13-.82-.24-.26-.1-.51-.22-.74-.36-.23-.14-.43-.3-.61-.47l.6-.95c.04-.07.11-.13.19-.17.08-.04.17-.07.26-.07.12,0,.24.04.36.11.12.08.26.16.41.25.15.09.33.18.53.25.2.08.44.11.71.11.37,0,.65-.08.86-.24s.31-.42.31-.77c0-.2-.06-.37-.17-.5-.11-.13-.26-.23-.44-.32-.18-.08-.39-.16-.62-.22-.23-.06-.47-.13-.71-.21-.24-.08-.48-.17-.71-.29s-.44-.26-.62-.45c-.18-.19-.33-.42-.44-.7-.11-.28-.17-.62-.17-1.03,0-.33.07-.65.2-.96.13-.31.33-.59.58-.83.26-.24.57-.44.94-.58.37-.15.8-.22,1.28-.22.27,0,.53.02.78.06.25.04.5.1.72.19.23.08.44.18.64.29.2.11.38.24.53.39l-.5.94c-.06.1-.12.17-.19.22-.07.05-.15.07-.25.07-.09,0-.19-.03-.3-.09-.11-.06-.23-.12-.36-.19-.13-.07-.29-.14-.46-.2-.17-.06-.37-.09-.59-.09-.38,0-.66.08-.85.24-.19.16-.28.38-.28.66,0,.18.06.32.17.44s.26.22.44.3c.18.08.39.16.62.23.23.07.47.15.72.23.24.09.48.19.72.3s.44.26.62.44c.18.18.33.4.44.66.11.26.17.57.17.93,0,.4-.07.78-.21,1.13ZM18.46,20.17h2.04v8.74h-2.04v-8.74ZM26.19,43.31h-2.04v-3.7h-3.55v3.7h-2.04v-8.74h2.04v3.65h3.55v-3.65h2.04v8.74ZM26.08,29.01c-.64,0-1.23-.11-1.78-.34-.54-.23-1.01-.54-1.41-.94-.4-.4-.71-.87-.94-1.42-.23-.55-.34-1.14-.34-1.78s.11-1.25.32-1.8.52-1.02.93-1.41c.4-.4.89-.7,1.46-.92.57-.22,1.21-.33,1.91-.33.36,0,.71.03,1.03.09.32.06.62.14.89.25s.52.23.74.37c.22.14.42.3.6.47l-.59.89c-.06.08-.12.15-.2.2-.08.05-.16.07-.25.07-.12,0-.24-.04-.37-.12-.16-.1-.31-.18-.45-.25-.14-.07-.29-.13-.44-.17-.15-.04-.3-.08-.47-.1s-.35-.03-.55-.03c-.38,0-.72.07-1.03.2-.3.13-.56.32-.78.57s-.38.54-.5.88c-.12.34-.17.72-.17,1.14,0,.46.06.88.19,1.24.13.36.31.66.53.91.23.25.49.44.8.57.31.13.65.2,1.02.2.28,0,.53-.02.74-.07.22-.05.42-.11.61-.19v-1.33h-.86c-.13,0-.23-.03-.3-.1-.07-.07-.11-.15-.11-.26v-1.12h3.11v3.69c-.22.16-.46.3-.7.42-.24.12-.5.21-.77.29-.27.08-.57.13-.88.17-.31.04-.64.05-1,.05ZM29.85,43.31h-2.04v-8.74h2.04v8.74ZM30.67,20.17h2.04v3.65h3.55v-3.65h2.04v8.74h-2.04v-3.7h-3.55v3.7h-2.04v-8.74ZM37.1,36.13h-3.59v2.04h2.75v1.5h-2.75v2.08h3.59v1.56h-5.63v-8.74h5.63v1.56ZM43.52,43.31h-5.27v-8.74h2.03v7.12h3.24v1.62ZM43.63,28.91h-2.03v-7.13h-2.46v-1.61h6.95v1.61h-2.46v7.13ZM52.08,40.69c-.22.53-.53,1-.92,1.39-.4.39-.87.69-1.43.91-.56.22-1.18.33-1.86.33h-3.4v-8.74h3.4c.68,0,1.3.11,1.86.33.56.22,1.04.52,1.43.91.4.39.7.85.92,1.38s.33,1.12.33,1.74-.11,1.21-.33,1.75Z"/>
  <path class="cls-1" d="M49.68,36.88c-.21-.24-.47-.43-.77-.56-.3-.13-.65-.2-1.04-.2h-1.36v5.62h1.36c.39,0,.73-.06,1.04-.19.3-.13.56-.32.77-.56s.37-.54.48-.88c.11-.35.17-.74.17-1.18s-.06-.82-.17-1.17c-.11-.35-.27-.64-.48-.89Z"/>
</svg>