<?xml version="1.0" encoding="UTF-8"?>
<svg id="fgc_real" data-name="fgc real" xmlns="http://www.w3.org/2000/svg" width="366.7" height="198.7" viewBox="0 0 366.7 198.7">
  <defs>
    <style>
      .cls-1 {
        fill: #64748b;
        stroke-width: 0px;
      }
    </style>
  </defs>
  <path class="cls-1" d="M355.35.5H11.35C5.36.5.5,5.36.5,11.35v176c0,5.99,4.86,10.85,10.85,10.85h344c5.99,0,10.85-4.86,10.85-10.85V11.35c0-5.99-4.86-10.85-10.85-10.85ZM178.43,31.95c6.68,0,12.1,5.42,12.1,12.1s-5.42,12.1-12.1,12.1-12.1-5.42-12.1-12.1,5.42-12.1,12.1-12.1ZM102.5,48.7c-6.68,0-12.1-5.42-12.1-12.1s5.42-12.1,12.1-12.1,12.1,5.42,12.1,12.1-5.42,12.1-12.1,12.1ZM130.69,53.67c-6.68,0-12.1-5.42-12.1-12.1s5.42-12.1,12.1-12.1,12.1,5.42,12.1,12.1-5.42,12.1-12.1,12.1ZM142.33,57.7c0-6.68,5.42-12.1,12.1-12.1s12.1,5.42,12.1,12.1-5.42,12.1-12.1,12.1-12.1-5.42-12.1-12.1ZM166.43,139.16c-7.9,0-14.3-6.4-14.3-14.3s6.4-14.3,14.3-14.3,14.3,6.4,14.3,14.3-6.4,14.3-14.3,14.3ZM178.43,83.45c-6.68,0-12.1-5.42-12.1-12.1s5.42-12.1,12.1-12.1,12.1,5.42,12.1,12.1-5.42,12.1-12.1,12.1ZM202.05,98.95c-6.68,0-12.1-5.42-12.1-12.1s5.42-12.1,12.1-12.1,12.1,5.42,12.1,12.1-5.42,12.1-12.1,12.1ZM204.71,71.47c-6.68,0-12.1-5.42-12.1-12.1s5.42-12.1,12.1-12.1,12.1,5.42,12.1,12.1-5.42,12.1-12.1,12.1ZM204.71,44.17c-6.68,0-12.1-5.42-12.1-12.1s5.42-12.1,12.1-12.1,12.1,5.42,12.1,12.1-5.42,12.1-12.1,12.1ZM233.59,71.47c-6.68,0-12.1-5.42-12.1-12.1s5.42-12.1,12.1-12.1,12.1,5.42,12.1,12.1-5.42,12.1-12.1,12.1ZM233.59,44.17c-6.68,0-12.1-5.42-12.1-12.1s5.42-12.1,12.1-12.1,12.1,5.42,12.1,12.1-5.42,12.1-12.1,12.1ZM262.25,75.06c-6.68,0-12.1-5.42-12.1-12.1s5.42-12.1,12.1-12.1,12.1,5.42,12.1,12.1-5.42,12.1-12.1,12.1ZM262.25,47.45c-6.68,0-12.1-5.42-12.1-12.1s5.42-12.1,12.1-12.1,12.1,5.42,12.1,12.1-5.42,12.1-12.1,12.1Z"/>
</svg>