<?xml version="1.0" encoding="UTF-8"?>
<svg id="Layer_2" data-name="Layer 2" xmlns="http://www.w3.org/2000/svg" width="366.41" height="198.41" viewBox="0 0 366.41 198.41">
  <defs>
    <style>
      .cls-1 {
        fill: #bababa;
        stroke-width: 0px;
      }
    </style>
  </defs>
  <path class="cls-1" d="M355.2.35H11.2C5.21.35.35,5.21.35,11.2v176c0,5.99,4.86,10.85,10.85,10.85h344c5.99,0,10.85-4.86,10.85-10.85V11.2c0-5.99-4.86-10.85-10.85-10.85ZM262.11,22.66c6.93,0,12.54,5.61,12.54,12.54s-5.61,12.54-12.54,12.54-12.54-5.61-12.54-12.54,5.61-12.54,12.54-12.54ZM262.11,50.27c6.93,0,12.54,5.61,12.54,12.54s-5.61,12.54-12.54,12.54-12.54-5.61-12.54-12.54,5.61-12.54,12.54-12.54ZM233.45,19.38c6.93,0,12.54,5.61,12.54,12.54s-5.61,12.54-12.54,12.54-12.54-5.61-12.54-12.54,5.61-12.54,12.54-12.54ZM233.45,46.68c6.93,0,12.54,5.61,12.54,12.54s-5.61,12.54-12.54,12.54-12.54-5.61-12.54-12.54,5.61-12.54,12.54-12.54ZM130.54,28.88c6.93,0,12.54,5.61,12.54,12.54s-5.61,12.54-12.54,12.54-12.54-5.61-12.54-12.54,5.61-12.54,12.54-12.54ZM102.35,23.91c6.93,0,12.54,5.61,12.54,12.54s-5.61,12.54-12.54,12.54-12.54-5.61-12.54-12.54,5.61-12.54,12.54-12.54ZM141.74,57.56c0-6.93,5.61-12.54,12.54-12.54s12.54,5.61,12.54,12.54-5.61,12.54-12.54,12.54-12.54-5.61-12.54-12.54ZM166.28,139.53c-8.18,0-14.82-6.64-14.82-14.82s6.64-14.82,14.82-14.82,14.82,6.64,14.82,14.82-6.64,14.82-14.82,14.82ZM178.28,83.75c-6.93,0-12.54-5.61-12.54-12.54s5.61-12.54,12.54-12.54,12.54,5.61,12.54,12.54-5.61,12.54-12.54,12.54ZM178.28,56.45c-6.93,0-12.54-5.61-12.54-12.54s5.61-12.54,12.54-12.54,12.54,5.61,12.54,12.54-5.61,12.54-12.54,12.54ZM201.9,99.24c-6.93,0-12.54-5.61-12.54-12.54s5.61-12.54,12.54-12.54,12.54,5.61,12.54,12.54-5.61,12.54-12.54,12.54ZM204.56,71.76c-6.93,0-12.54-5.61-12.54-12.54s5.61-12.54,12.54-12.54,12.54,5.61,12.54,12.54-5.61,12.54-12.54,12.54ZM204.56,44.46c-6.93,0-12.54-5.61-12.54-12.54s5.61-12.54,12.54-12.54,12.54,5.61,12.54,12.54-5.61,12.54-12.54,12.54Z"/>
</svg>