<?xml version="1.0" encoding="UTF-8"?>
<svg id="base_110_" data-name="base (110)" xmlns="http://www.w3.org/2000/svg" width="366.41" height="198.41" viewBox="0 0 366.41 198.41">
  <defs>
    <style>
      .cls-1 {
        fill: #64748b;
        stroke-width: 0px;
      }
    </style>
  </defs>
  <path class="cls-1" d="M355.2.35H11.2C5.21.35.35,5.21.35,11.2v176c0,5.99,4.86,10.85,10.85,10.85h344c5.99,0,10.85-4.86,10.85-10.85V11.2c0-5.99-4.86-10.85-10.85-10.85ZM262.11,23.1c6.68,0,12.1,5.42,12.1,12.1s-5.42,12.1-12.1,12.1-12.1-5.42-12.1-12.1,5.42-12.1,12.1-12.1ZM262.11,50.71c6.68,0,12.1,5.42,12.1,12.1s-5.42,12.1-12.1,12.1-12.1-5.42-12.1-12.1,5.42-12.1,12.1-12.1ZM264.95,104.78c0,6.68-5.42,12.1-12.1,12.1s-12.1-5.42-12.1-12.1,5.42-12.1,12.1-12.1,12.1,5.42,12.1,12.1ZM233.45,19.82c6.68,0,12.1,5.42,12.1,12.1s-5.42,12.1-12.1,12.1-12.1-5.42-12.1-12.1,5.42-12.1,12.1-12.1ZM233.45,47.12c6.68,0,12.1,5.42,12.1,12.1s-5.42,12.1-12.1,12.1-12.1-5.42-12.1-12.1,5.42-12.1,12.1-12.1ZM178.28,31.81c6.68,0,12.1,5.42,12.1,12.1s-5.42,12.1-12.1,12.1-12.1-5.42-12.1-12.1,5.42-12.1,12.1-12.1ZM154.28,45.46c6.68,0,12.1,5.42,12.1,12.1s-5.42,12.1-12.1,12.1-12.1-5.42-12.1-12.1,5.42-12.1,12.1-12.1ZM130.54,29.32c6.68,0,12.1,5.42,12.1,12.1s-5.42,12.1-12.1,12.1-12.1-5.42-12.1-12.1,5.42-12.1,12.1-12.1ZM125.66,104.78c0,6.68-5.42,12.1-12.1,12.1s-12.1-5.42-12.1-12.1,5.42-12.1,12.1-12.1,12.1,5.42,12.1,12.1ZM104.3,74.91c-6.68,0-12.1-5.42-12.1-12.1s5.42-12.1,12.1-12.1,12.1,5.42,12.1,12.1-5.42,12.1-12.1,12.1ZM102.35,24.35c6.68,0,12.1,5.42,12.1,12.1s-5.42,12.1-12.1,12.1-12.1-5.42-12.1-12.1,5.42-12.1,12.1-12.1ZM77.78,38.71c6.68,0,12.1,5.42,12.1,12.1s-5.42,12.1-12.1,12.1-12.1-5.42-12.1-12.1,5.42-12.1,12.1-12.1ZM23.2,81.93c-6.68,0-12.1-5.42-12.1-12.1s5.42-12.1,12.1-12.1,12.1,5.42,12.1,12.1-5.42,12.1-12.1,12.1ZM49.43,65.89c-6.68,0-12.1-5.42-12.1-12.1s5.42-12.1,12.1-12.1,12.1,5.42,12.1,12.1-5.42,12.1-12.1,12.1ZM61.51,76.22c0-6.68,5.42-12.1,12.1-12.1s12.1,5.42,12.1,12.1-5.42,12.1-12.1,12.1-12.1-5.42-12.1-12.1ZM90.22,127.77c-6.68,0-12.1-5.42-12.1-12.1s5.42-12.1,12.1-12.1,12.1,5.42,12.1,12.1-5.42,12.1-12.1,12.1ZM111.32,142.54c-6.68,0-12.1-5.42-12.1-12.1s5.42-12.1,12.1-12.1,12.1,5.42,12.1,12.1-5.42,12.1-12.1,12.1ZM132.41,157.3c-6.68,0-12.1-5.42-12.1-12.1s5.42-12.1,12.1-12.1,12.1,5.42,12.1,12.1-5.42,12.1-12.1,12.1ZM134.65,131.65c-6.68,0-12.1-5.42-12.1-12.1s5.42-12.1,12.1-12.1,12.1,5.42,12.1,12.1-5.42,12.1-12.1,12.1ZM166.28,139.01c-7.9,0-14.3-6.4-14.3-14.3s6.4-14.3,14.3-14.3,14.3,6.4,14.3,14.3-6.4,14.3-14.3,14.3ZM178.28,83.31c-6.68,0-12.1-5.42-12.1-12.1s5.42-12.1,12.1-12.1,12.1,5.42,12.1,12.1-5.42,12.1-12.1,12.1ZM201.9,98.8c-6.68,0-12.1-5.42-12.1-12.1s5.42-12.1,12.1-12.1,12.1,5.42,12.1,12.1-5.42,12.1-12.1,12.1ZM204.56,71.32c-6.68,0-12.1-5.42-12.1-12.1s5.42-12.1,12.1-12.1,12.1,5.42,12.1,12.1-5.42,12.1-12.1,12.1ZM204.56,44.02c-6.68,0-12.1-5.42-12.1-12.1s5.42-12.1,12.1-12.1,12.1,5.42,12.1,12.1-5.42,12.1-12.1,12.1ZM231.76,107.45c6.68,0,12.1,5.42,12.1,12.1s-5.42,12.1-12.1,12.1-12.1-5.42-12.1-12.1,5.42-12.1,12.1-12.1ZM234,157.3c-6.68,0-12.1-5.42-12.1-12.1s5.42-12.1,12.1-12.1,12.1,5.42,12.1,12.1-5.42,12.1-12.1,12.1ZM255.09,142.54c-6.68,0-12.1-5.42-12.1-12.1s5.42-12.1,12.1-12.1,12.1,5.42,12.1,12.1-5.42,12.1-12.1,12.1ZM276.19,127.77c-6.68,0-12.1-5.42-12.1-12.1s5.42-12.1,12.1-12.1,12.1,5.42,12.1,12.1-5.42,12.1-12.1,12.1ZM285.75,90.37c-6.68,0-12.1-5.42-12.1-12.1s5.42-12.1,12.1-12.1,12.1,5.42,12.1,12.1-5.42,12.1-12.1,12.1ZM288.63,62.91c-6.68,0-12.1-5.42-12.1-12.1s5.42-12.1,12.1-12.1,12.1,5.42,12.1,12.1-5.42,12.1-12.1,12.1ZM288.63,35.3c-6.68,0-12.1-5.42-12.1-12.1s5.42-12.1,12.1-12.1,12.1,5.42,12.1,12.1-5.42,12.1-12.1,12.1ZM316.98,65.89c-6.68,0-12.1-5.42-12.1-12.1s5.42-12.1,12.1-12.1,12.1,5.42,12.1,12.1-5.42,12.1-12.1,12.1ZM316.98,38.28c-6.68,0-12.1-5.42-12.1-12.1s5.42-12.1,12.1-12.1,12.1,5.42,12.1,12.1-5.42,12.1-12.1,12.1ZM343.2,81.93c-6.68,0-12.1-5.42-12.1-12.1s5.42-12.1,12.1-12.1,12.1,5.42,12.1,12.1-5.42,12.1-12.1,12.1ZM343.2,54.32c-6.68,0-12.1-5.42-12.1-12.1s5.42-12.1,12.1-12.1,12.1,5.42,12.1,12.1-5.42,12.1-12.1,12.1Z"/>
</svg>