<?xml version="1.0" encoding="utf-8"?>
<!-- Generator: Adobe Illustrator 27.9.0, SVG Export Plug-In . SVG Version: 6.00 Build 0)  -->
<svg version="1.1" id="base_110_" xmlns="http://www.w3.org/2000/svg" xmlns:xlink="http://www.w3.org/1999/xlink" x="0px" y="0px"
	 viewBox="0 0 366.4 198.4" style="enable-background:new 0 0 366.4 198.4;" xml:space="preserve">
<style type="text/css">
	.st0{fill:#64748B;}
</style>
<path class="st0" d="M355.2,0.3h-344c-6,0-10.8,4.9-10.8,10.8v176c0,6,4.9,10.9,10.9,10.9h344c6,0,10.9-4.9,10.9-10.9v-176
	C366.1,5.2,361.2,0.3,355.2,0.3z M262.1,23.1c6.7,0,12.1,5.4,12.1,12.1s-5.4,12.1-12.1,12.1S250,41.9,250,35.2
	S255.4,23.1,262.1,23.1z M262.1,50.7c6.7,0,12.1,5.4,12.1,12.1s-5.4,12.1-12.1,12.1S250,69.5,250,62.8S255.4,50.7,262.1,50.7z
	 M252.9,92.7c6.7,0,12.1,5.4,12.1,12.1s-5.4,12.1-12.1,12.1s-12.1-5.4-12.1-12.1S246.2,92.7,252.9,92.7z M125.7,104.8
	c0,6.7-5.4,12.1-12.1,12.1s-12.1-5.4-12.1-12.1s5.4-12.1,12.1-12.1S125.7,98.1,125.7,104.8z M104.3,50.7c6.7,0,12.1,5.4,12.1,12.1
	s-5.4,12.1-12.1,12.1s-12.1-5.4-12.1-12.1S97.6,50.7,104.3,50.7z M77.8,38.7c6.7,0,12.1,5.4,12.1,12.1s-5.4,12.1-12.1,12.1
	s-12.1-5.4-12.1-12.1S71.1,38.7,77.8,38.7z M23.2,81.9c-6.7,0-12.1-5.4-12.1-12.1s5.4-12.1,12.1-12.1s12.1,5.4,12.1,12.1
	S29.9,81.9,23.2,81.9z M49.4,65.9c-6.7,0-12.1-5.4-12.1-12.1s5.4-12.1,12.1-12.1s12.1,5.4,12.1,12.1S56.1,65.9,49.4,65.9z
	 M61.5,76.2c0-6.7,5.4-12.1,12.1-12.1s12.1,5.4,12.1,12.1s-5.4,12.1-12.1,12.1S61.5,82.9,61.5,76.2z M90.2,127.8
	c-6.7,0-12.1-5.4-12.1-12.1s5.4-12.1,12.1-12.1s12.1,5.4,12.1,12.1S96.9,127.8,90.2,127.8z M111.3,142.5c-6.7,0-12.1-5.4-12.1-12.1
	s5.4-12.1,12.1-12.1s12.1,5.4,12.1,12.1C123.4,137.1,118,142.5,111.3,142.5z M132.4,157.3c-6.7,0-12.1-5.4-12.1-12.1
	s5.4-12.1,12.1-12.1c6.7,0,12.1,5.4,12.1,12.1S139.1,157.3,132.4,157.3z M134.6,131.6c-6.7,0-12.1-5.4-12.1-12.1s5.4-12.1,12.1-12.1
	c6.7,0,12.1,5.4,12.1,12.1S141.3,131.6,134.6,131.6z M231.8,107.4c6.7,0,12.1,5.4,12.1,12.1s-5.4,12.1-12.1,12.1
	s-12.1-5.4-12.1-12.1S225.1,107.4,231.8,107.4z M234,157.3c-6.7,0-12.1-5.4-12.1-12.1s5.4-12.1,12.1-12.1s12.1,5.4,12.1,12.1
	S240.7,157.3,234,157.3z M255.1,142.5c-6.7,0-12.1-5.4-12.1-12.1s5.4-12.1,12.1-12.1c6.7,0,12.1,5.4,12.1,12.1
	C267.2,137.1,261.8,142.5,255.1,142.5z M276.2,127.8c-6.7,0-12.1-5.4-12.1-12.1s5.4-12.1,12.1-12.1s12.1,5.4,12.1,12.1
	S282.9,127.8,276.2,127.8z M288.6,62.9c-6.7,0-12.1-5.4-12.1-12.1s5.4-12.1,12.1-12.1s12.1,5.4,12.1,12.1S295.3,62.9,288.6,62.9z
	 M288.6,35.3c-6.7,0-12.1-5.4-12.1-12.1s5.4-12.1,12.1-12.1s12.1,5.4,12.1,12.1S295.3,35.3,288.6,35.3z M317,65.9
	c-6.7,0-12.1-5.4-12.1-12.1s5.4-12.1,12.1-12.1s12.1,5.4,12.1,12.1S323.7,65.9,317,65.9z M317,38.3c-6.7,0-12.1-5.4-12.1-12.1
	s5.4-12.1,12.1-12.1s12.1,5.4,12.1,12.1S323.7,38.3,317,38.3z M343.2,81.9c-6.7,0-12.1-5.4-12.1-12.1s5.4-12.1,12.1-12.1
	s12.1,5.4,12.1,12.1S349.9,81.9,343.2,81.9z M343.2,54.3c-6.7,0-12.1-5.4-12.1-12.1s5.4-12.1,12.1-12.1s12.1,5.4,12.1,12.1
	S349.9,54.3,343.2,54.3z"/>
</svg>
