<?xml version="1.0" encoding="UTF-8"?>
<svg id="base_110_" data-name="base (110)" xmlns="http://www.w3.org/2000/svg" width="366.41" height="198.41" viewBox="0 0 366.41 198.41">
  <defs>
    <style>
      .cls-1 {
        fill: #64748b;
        stroke-width: 0px;
      }
    </style>
  </defs>
  <path class="cls-1" d="M355.2.35H11.2C5.21.35.35,5.21.35,11.2v176c0,5.99,4.86,10.85,10.85,10.85h344c5.99,0,10.85-4.86,10.85-10.85V11.2c0-5.99-4.86-10.85-10.85-10.85ZM262.11,23.1c6.68,0,12.1,5.42,12.1,12.1s-5.42,12.1-12.1,12.1-12.1-5.42-12.1-12.1,5.42-12.1,12.1-12.1ZM49.43,65.89c-6.68,0-12.1-5.42-12.1-12.1s5.42-12.1,12.1-12.1,12.1,5.42,12.1,12.1-5.42,12.1-12.1,12.1ZM73.61,88.32c-6.68,0-12.1-5.42-12.1-12.1s5.42-12.1,12.1-12.1,12.1,5.42,12.1,12.1-5.42,12.1-12.1,12.1ZM77.78,62.91c-6.68,0-12.1-5.42-12.1-12.1s5.42-12.1,12.1-12.1,12.1,5.42,12.1,12.1-5.42,12.1-12.1,12.1ZM92.2,62.81c0-6.68,5.42-12.1,12.1-12.1s12.1,5.42,12.1,12.1-5.42,12.1-12.1,12.1-12.1-5.42-12.1-12.1ZM111.32,142.54c-6.68,0-12.1-5.42-12.1-12.1s5.42-12.1,12.1-12.1,12.1,5.42,12.1,12.1-5.42,12.1-12.1,12.1ZM255.09,142.54c-6.68,0-12.1-5.42-12.1-12.1s5.42-12.1,12.1-12.1,12.1,5.42,12.1,12.1-5.42,12.1-12.1,12.1ZM262.11,74.91c-6.68,0-12.1-5.42-12.1-12.1s5.42-12.1,12.1-12.1,12.1,5.42,12.1,12.1-5.42,12.1-12.1,12.1ZM285.75,90.37c-6.68,0-12.1-5.42-12.1-12.1s5.42-12.1,12.1-12.1,12.1,5.42,12.1,12.1-5.42,12.1-12.1,12.1ZM288.63,62.91c-6.68,0-12.1-5.42-12.1-12.1s5.42-12.1,12.1-12.1,12.1,5.42,12.1,12.1-5.42,12.1-12.1,12.1ZM288.63,35.3c-6.68,0-12.1-5.42-12.1-12.1s5.42-12.1,12.1-12.1,12.1,5.42,12.1,12.1-5.42,12.1-12.1,12.1ZM316.98,65.89c-6.68,0-12.1-5.42-12.1-12.1s5.42-12.1,12.1-12.1,12.1,5.42,12.1,12.1-5.42,12.1-12.1,12.1ZM316.98,38.28c-6.68,0-12.1-5.42-12.1-12.1s5.42-12.1,12.1-12.1,12.1,5.42,12.1,12.1-5.42,12.1-12.1,12.1ZM343.2,81.93c-6.68,0-12.1-5.42-12.1-12.1s5.42-12.1,12.1-12.1,12.1,5.42,12.1,12.1-5.42,12.1-12.1,12.1ZM343.2,54.32c-6.68,0-12.1-5.42-12.1-12.1s5.42-12.1,12.1-12.1,12.1,5.42,12.1,12.1-5.42,12.1-12.1,12.1Z"/>
</svg>