<?xml version="1.0" encoding="UTF-8"?>
<svg id="Layer_1" data-name="Layer 1" xmlns="http://www.w3.org/2000/svg" width="64" height="64" viewBox="0 0 64 64">
  <defs>
    <style>
      .cls-1 {
        fill: #e2e8f0;
        stroke-width: 0px;
      }
    </style>
  </defs>
  <path class="cls-1" d="M42,25h-4l-3,3v1.95h3v12.05h4v-17M12,30c0-5.53,1.93-10.27,5.8-14.2,1.6-1.57,3.32-2.8,5.15-3.7,2.73-1.4,5.75-2.1,9.05-2.1,5.5,0,10.2,1.93,14.1,5.8,2.5,2.5,4.22,5.33,5.15,8.5l.55,2.6.2,2.7v16.85c-.1,1.8-.73,3.38-1.9,4.75l-.45.45-.2.2c-.97.9-2.03,1.52-3.2,1.85l-2.25.3h-24c-2.2,0-4.08-.78-5.65-2.35-1.57-1.57-2.35-3.45-2.35-5.65v-16M22,25v17h12v-4h-8v-13h-4"/>
</svg>