<?xml version="1.0" encoding="UTF-8"?>
<svg id="Layer_1" data-name="Layer 1" xmlns="http://www.w3.org/2000/svg" width="64" height="64" viewBox="0 0 64 64">
  <defs>
    <style>
      .cls-1 {
        fill: #e2e8f0;
        stroke-width: 0px;
      }
    </style>
  </defs>
  <path class="cls-1" d="M48,30c.17,4.93,1.5,9.47,4,13.6,2.67,4.37,4,7.03,4,8,0,1.23-.48,2.28-1.45,3.15-.87.83-1.98,1.25-3.35,1.25h-27.2c-4.4,0-8.17-1.57-11.3-4.7-3.13-3.13-4.7-6.9-4.7-11.3v-24c0-2.2.78-4.08,2.35-5.65s3.45-2.35,5.65-2.35h24c2.2,0,4.08.78,5.65,2.35,1.57,1.57,2.35,3.45,2.35,5.65v14M37.5,27.4c.5.5.33,1.18-.5,2.05l-7,6.55v4h12v-4h-6l4.45-4.45c1.47-1.47,1.78-3.32.95-5.55l-1-1.35-.05-.05c-1.07-1.07-2.35-1.6-3.85-1.6h-1.65c-1.3.03-2.42.5-3.35,1.4l-.1.1c-.7.73-1.13,1.57-1.3,2.5l-.1,1h4c0-.27.1-.5.3-.7.17-.17.35-.27.55-.3h1.65c.4,0,.73.13,1,.4M22,27c.53,0,1,.2,1.4.6.4.4.6.87.6,1.4s-.18.98-.55,1.35l-.1.1c-.37.37-.82.55-1.35.55h-3v-4h3M15,23v17h4v-5h3l2.5,5h4l-3.05-6.1.75-.65.05-.05c1.17-1.17,1.75-2.57,1.75-4.2s-.58-3.08-1.75-4.25-2.58-1.75-4.25-1.75h-7"/>
</svg>