<?xml version="1.0" encoding="UTF-8"?>
<svg id="Layer_1" data-name="Layer 1" xmlns="http://www.w3.org/2000/svg" width="64" height="64" viewBox="0 0 64 64">
  <defs>
    <style>
      .cls-1 {
        fill: #e2e8f0;
        stroke-width: 0px;
      }
    </style>
  </defs>
  <path class="cls-1" d="M28,19l-.3.7c-.2.2-.43.3-.7.3l-.7-.3-.3-.7v-3h-2v3l-.3.7-.7.3c-.27,0-.5-.1-.7-.3-.2-.2-.3-.43-.3-.7v-8c0-.27.1-.5.3-.7.2-.2.43-.3.7-.3s.5.1.7.3l.3.7v3h2v-3c0-.27.1-.5.3-.7.2-.2.43-.3.7-.3s.5.1.7.3l.3.7v8M18,12c-.27,0-.5.1-.7.3s-.3.43-.3.7.1.5.3.7c.2.2.42.3.65.3h.1c.77,0,1.45.3,2.05.9.6.6.9,1.3.9,2.1s-.3,1.5-.9,2.1-1.3.9-2.1.9h-2l-.7-.3c-.2-.2-.3-.43-.3-.7s.1-.5.3-.7.43-.3.7-.3h2c.27,0,.5-.1.7-.3l.3-.7-.3-.7c-.2-.2-.42-.3-.65-.3h-.1c-.77,0-1.45-.3-2.05-.9s-.9-1.3-.9-2.1.3-1.5.9-2.1,1.3-.9,2.1-.9h2c.27,0,.5.1.7.3l.3.7-.3.7-.7.3h-2M39.1,14l.35-.1.25-.2h.05l.25-.7-.3-.75c-.17-.17-.38-.25-.65-.25h-1.05v2h1.1M29,12.8c0-.77.28-1.43.85-2l.05-.05c.57-.5,1.27-.75,2.1-.75.77,0,1.45.25,2.05.75l.05.05c.6.57.9,1.23.9,2v6.2l-.3.7c-.2.2-.43.3-.7.3l-.7-.3c-.2-.2-.3-.43-.3-.7v-2h-2v2l-.3.7c-.2.2-.43.3-.7.3l-.7-.3c-.2-.2-.3-.43-.3-.7v-6.2M31,12.8v2.2h2v-2.2l-.25-.55v.05c-.2-.2-.45-.3-.75-.3s-.57.1-.8.3l.05-.1c-.17.17-.25.37-.25.6M41.1,15.1v.05l-.65.5,1.45,2.9.05.8-.5.55-.75.05c-.27-.1-.47-.27-.6-.5l-1.7-3.45h-.4v3l-.3.7-.7.3-.7-.3c-.2-.2-.3-.43-.3-.7v-8c0-.27.1-.5.3-.7s.43-.3.7-.3h2.05c.8,0,1.48.28,2.05.85.6.6.9,1.32.9,2.15s-.3,1.53-.9,2.1M43,11c0-.27.1-.5.3-.7s.43-.3.7-.3h4c.27,0,.5.1.7.3l.3.7-.3.7c-.2.2-.43.3-.7.3h-3v2h3c.27,0,.5.1.7.3l.3.7-.3.7c-.2.2-.43.3-.7.3h-3v2h3c.27,0,.5.1.7.3l.3.7-.3.7c-.2.2-.43.3-.7.3h-4c-.27,0-.5-.1-.7-.3-.2-.2-.3-.43-.3-.7v-8M32,26c2.2,0,4.08.78,5.65,2.35s2.35,3.45,2.35,5.65v12c0,2.2-.78,4.08-2.35,5.65s-3.45,2.35-5.65,2.35-4.08-.78-5.65-2.35-2.35-3.45-2.35-5.65v-12c0-2.2.78-4.08,2.35-5.65s3.45-2.35,5.65-2.35"/>
</svg>