<?xml version="1.0" encoding="UTF-8"?>
<svg id="Layer_1" data-name="Layer 1" xmlns="http://www.w3.org/2000/svg" width="64" height="64" viewBox="0 0 64 64">
  <defs>
    <style>
      .cls-1 {
        fill: #e2e8f0;
      }

      .cls-1, .cls-2 {
        stroke-width: 0px;
      }

      .cls-2 {
        fill: #f87171;
      }
    </style>
  </defs>
  <path class="cls-1" d="M40,10v9.1c0,.6-.2,1-.5,1.5l-6,6c-.5.4-.9.5-1.5.5s-1-.2-1.4-.5l-6-6c-.4-.4-.6-.9-.6-1.5v-9.1c0-.6.2-1,.6-1.4.4-.4.8-.6,1.4-.6h12c.6,0,1,.2,1.5.6.3.4.5.8.5,1.4M56,26v12c0,.6-.2,1-.5,1.5-.5.3-.9.5-1.5.5h-9.2c-.6,0-1-.2-1.4-.5l-6-6c-.4-.5-.6-.9-.6-1.5s.2-1,.6-1.4l6-6c.4-.4.8-.6,1.4-.6h9.2c.6,0,1,.2,1.5.6.3.4.5.8.5,1.4M19.1,40h-9.1c-.6,0-1-.2-1.4-.5-.4-.5-.6-.9-.6-1.5v-12c0-.6.2-1,.6-1.4.4-.4.8-.6,1.4-.6h9.1c.6,0,1,.2,1.5.6l6,6c.4.4.5.8.5,1.4s-.2,1-.5,1.5l-6,6c-.4.3-.9.5-1.5.5"/>
  <path class="cls-2" d="M33.5,37.5l6,6c.4.4.5.8.5,1.4v9.1c0,.6-.2,1-.5,1.5-.5.3-.9.5-1.5.5h-12c-.6,0-1-.2-1.4-.5-.4-.5-.6-.9-.6-1.5v-9.2c0-.6.2-1,.6-1.4l6-6c.4-.4.8-.6,1.4-.6s1,.2,1.5.7"/>
</svg>