<?xml version="1.0" encoding="UTF-8"?>
<svg id="Layer_1" data-name="Layer 1" xmlns="http://www.w3.org/2000/svg" width="64" height="64" viewBox="0 0 64 64">
  <defs>
    <style>
      .cls-1 {
        fill: #f87171;
        stroke-width: 0px;
      }
    </style>
  </defs>
  <path class="cls-1" d="M37.7,26.35c1.53,1.53,2.3,3.42,2.3,5.65s-.77,4.13-2.3,5.7c-1.57,1.53-3.47,2.3-5.7,2.3s-4.07-.77-5.6-2.3l-.05-.05c-1.57-1.57-2.35-3.45-2.35-5.65s.78-4.08,2.35-5.65h.05c1.53-1.57,3.4-2.35,5.6-2.35s4.13.78,5.7,2.35M44,32c0-3.33-1.17-6.17-3.5-8.5s-5.17-3.5-8.5-3.5-6.12,1.17-8.45,3.5c-2.37,2.33-3.55,5.17-3.55,8.5s1.18,6.17,3.55,8.5c2.33,2.33,5.15,3.5,8.45,3.5s6.17-1.17,8.5-3.5,3.5-5.17,3.5-8.5M56,32c0,6.67-2.35,12.32-7.05,16.95-4.63,4.7-10.28,7.05-16.95,7.05s-12.3-2.35-17-7.05c-4.67-4.63-7-10.28-7-16.95s2.33-12.3,7-17c4.7-4.67,10.37-7,17-7s12.32,2.33,16.95,7c4.7,4.7,7.05,10.37,7.05,17"/>
</svg>