<?xml version="1.0" encoding="UTF-8"?>
<svg id="Layer_1" data-name="Layer 1" xmlns="http://www.w3.org/2000/svg" width="64" height="64" viewBox="0 0 64 64">
  <defs>
    <style>
      .cls-1 {
        fill: #e2e8f0;
        stroke-width: 0px;
      }
    </style>
  </defs>
  <path class="cls-1" d="M23,23v17h12v-4h-8v-13h-4M16,30v-14c0-2.2.78-4.08,2.35-5.65,1.57-1.57,3.45-2.35,5.65-2.35h24c2.2,0,4.08.78,5.65,2.35,1.4,1.4,2.18,3.03,2.35,4.9v24.75c0,4.4-1.57,8.17-4.7,11.3-3.13,3.13-6.9,4.7-11.3,4.7H12.8c-1.37,0-2.48-.42-3.35-1.25-.97-.87-1.45-1.92-1.45-3.15,0-.97,1.33-3.63,4-8,2.5-4.13,3.83-8.67,4-13.6M44.5,27.4c.5.5.33,1.18-.5,2.05l-7,6.55v4h12v-4h-6l4.45-4.45c1.47-1.47,1.78-3.32.95-5.55l-1-1.35-.05-.05c-1.07-1.07-2.35-1.6-3.85-1.6h-1.65c-1.3.03-2.42.5-3.35,1.4l-.1.1c-.7.73-1.13,1.57-1.3,2.5l-.1,1h4c0-.27.1-.5.3-.7.17-.17.35-.27.55-.3h1.65c.4,0,.73.13,1,.4"/>
</svg>