<?xml version="1.0" encoding="UTF-8"?>
<svg id="Layer_1" xmlns="http://www.w3.org/2000/svg" viewBox="0 0 64 64">
  <defs>
    <style>
      .cls-1 {
        fill: #e2e8f0;
      }
    </style>
  </defs>
  <path class="cls-1" d="M25.56,27.94h-5.09v1.77h5.09c.54,0,.93-.37.93-.91,0-.59-.39-.86-.93-.86Z"/>
  <path class="cls-1" d="M48.95,15c-4.63-4.67-10.28-7-16.95-7s-12.3,2.33-17,7c-4.67,4.7-7,10.37-7,17s2.33,12.32,7,16.95c4.7,4.7,10.37,7.05,17,7.05s12.32-2.35,16.95-7.05c4.7-4.63,7.05-10.28,7.05-16.95s-2.35-12.3-7.05-17ZM26.39,34.26h-5.93v6.35h-5.76v-17.22h11.93c3.49,0,5.61,2.02,5.61,5.46,0,3.02-2.78,5.41-5.85,5.41ZM43.63,40.61h-10.28l.07-4.55h8.98c.76,0,1.13-.34,1.13-.91s-.37-.88-1.16-.88h-4.08c-2.88,0-5.21-1.97-5.21-5.44,0-3.98,2.73-5.44,5.49-5.44h10.18v4.55h-8.78c-.67,0-1.13.25-1.13.86s.47.91,1.13.91h3.84c3.3,0,5.49,1.94,5.49,5.41,0,3.27-2.46,5.49-5.66,5.49Z"/>
</svg>