<?xml version="1.0" encoding="UTF-8"?>
<svg id="Layer_1" data-name="Layer 1" xmlns="http://www.w3.org/2000/svg" width="64" height="64" viewBox="0 0 64 64">
  <defs>
    <style>
      .cls-1 {
        fill: #e2e8f0;
        stroke-width: 0px;
      }
    </style>
  </defs>
  <path class="cls-1" d="M56,32c0,6.67-2.35,12.32-7.05,16.95-4.63,4.7-10.28,7.05-16.95,7.05s-12.3-2.35-17-7.05c-4.67-4.63-7-10.28-7-16.95s2.33-12.3,7-17l1.05-1c4.5-4,9.82-6,15.95-6s11.47,2,15.9,6l1.05,1c4.7,4.7,7.05,10.37,7.05,17M44,35.75c.03-1.23-.38-2.32-1.25-3.25.87-.93,1.28-2.02,1.25-3.25.03-1.47-.62-2.75-1.95-3.85l.05.1c-1.13-1-2.5-1.5-4.1-1.5s-2.97.48-4.1,1.45c-1.23,1-1.87,2.18-1.9,3.55h4.1l.35-.45v-.05c.43-.33.95-.5,1.55-.5s1.1.17,1.5.5l.05.05c.27.2.42.43.45.7l-.4.75c-.4.33-.88.5-1.45.5h-2.15v4h2.15l.55.05c.33.07.63.22.9.45l.4.75-.45.7-.05.05c-.4.33-.9.5-1.5.5s-1.12-.17-1.55-.5v-.05l-.35-.45h-4.1c.03,1.37.67,2.55,1.9,3.55,1.13.97,2.5,1.45,4.1,1.45s2.97-.5,4.1-1.5l-.05.1c1.33-1.1,1.98-2.38,1.95-3.85M20,24v17h10v-4h-6v-13h-4"/>
</svg>