<?xml version="1.0" encoding="UTF-8"?>
<svg id="Layer_1" data-name="Layer 1" xmlns="http://www.w3.org/2000/svg" width="64" height="64" viewBox="0 0 64 64">
  <defs>
    <style>
      .cls-1 {
        fill: #e2e8f0;
        stroke-width: 0px;
      }
    </style>
  </defs>
  <path class="cls-1" d="M32.92,25.25c0-.39-.05-.74-.15-1.06-.1-.31-.25-.58-.44-.8-.19-.22-.42-.39-.7-.5s-.59-.18-.94-.18h-1.23v5.09h1.23c.35,0,.66-.06.94-.18s.51-.29.7-.5c.19-.22.34-.49.44-.8s.15-.67.15-1.06Z"/>
  <path class="cls-1" d="M48,36.42c-.19-.22-.42-.39-.7-.5-.27-.12-.59-.18-.94-.18h-1.23v5.09h1.23c.35,0,.66-.06.94-.18.28-.12.51-.29.7-.5.19-.22.33-.49.44-.8s.15-.67.15-1.06-.05-.74-.15-1.06c-.1-.31-.25-.58-.44-.8Z"/>
  <path class="cls-1" d="M32,5.31c-14.74,0-26.69,11.95-26.69,26.69s11.95,26.69,26.69,26.69,26.69-11.95,26.69-26.69S46.74,5.31,32,5.31ZM24.31,21.3h1.85v7.91h-1.85v-7.91ZM18.74,40.73c-.13.32-.31.6-.55.83-.24.24-.54.42-.89.56-.35.14-.75.2-1.2.2-.25,0-.5-.03-.75-.08-.25-.05-.5-.12-.74-.21-.24-.09-.46-.2-.67-.33-.21-.13-.39-.27-.55-.42l.54-.86c.04-.06.1-.12.17-.16s.15-.06.23-.06c.11,0,.22.03.33.1.11.07.24.15.38.23.14.08.3.16.48.23.18.07.39.1.64.1.33,0,.59-.07.78-.22s.28-.38.28-.7c0-.18-.05-.33-.15-.45-.1-.12-.23-.21-.4-.29-.17-.08-.35-.14-.56-.2s-.43-.12-.65-.19c-.22-.07-.44-.16-.65-.26-.21-.1-.4-.24-.56-.41-.17-.17-.3-.38-.4-.63-.1-.25-.15-.56-.15-.93,0-.3.06-.59.18-.87.12-.28.29-.53.53-.75.23-.22.52-.4.85-.53.34-.13.72-.2,1.16-.2.24,0,.48.02.71.06s.45.09.65.17.4.16.58.27c.18.1.34.22.48.35l-.46.85c-.05.09-.11.15-.17.2-.06.04-.14.07-.23.07-.08,0-.17-.03-.27-.08-.1-.05-.2-.11-.33-.18-.12-.06-.26-.12-.42-.18-.16-.05-.33-.08-.53-.08-.34,0-.6.07-.77.22s-.25.34-.25.59c0,.16.05.29.15.4.1.1.23.2.4.27.16.08.35.15.56.21s.43.13.65.21c.22.08.44.17.65.27.21.11.4.24.56.4.16.16.3.36.4.59.1.23.15.52.15.84,0,.37-.06.71-.19,1.03ZM18.9,28.3c-.11.07-.24.1-.38.1h-.25c-.14,0-.27-.03-.38-.1-.11-.06-.2-.16-.26-.29l-2.11-4.07c.01.13.03.25.03.38,0,.12.01.24.01.34v4.55h-1.62v-7.9h1.61c.06,0,.11,0,.16.03.05.02.09.05.13.08s.08.09.11.16l2.04,4.02c.07.14.14.28.21.43.07.15.13.3.19.46.06-.16.13-.31.2-.46s.14-.3.21-.44l2.03-4c.04-.07.07-.12.11-.16s.08-.07.13-.08c.05-.02.1-.03.16-.03h1.61v7.9h-1.62v-4.55c0-.22.01-.46.03-.72l-2.1,4.07c-.07.13-.15.22-.26.29ZM26.75,42.24h-1.85v-3.34h-3.21v3.34h-1.85v-7.91h1.85v3.31h3.21v-3.31h1.85v7.91ZM30.06,42.24h-1.85v-7.91h1.85v7.91ZM27.62,29.21v-7.91h3.07c.62,0,1.18.1,1.68.3s.94.47,1.29.83.64.77.83,1.25c.2.48.3,1.01.3,1.58s-.1,1.1-.3,1.58c-.2.48-.47.9-.83,1.25s-.79.63-1.29.83-1.07.3-1.68.3h-3.07ZM36.62,35.74h-3.25v1.85h2.49v1.36h-2.49v1.88h3.25v1.41h-5.09v-7.91h5.09v1.41ZM42.42,42.24h-4.77v-7.91h1.83v6.44h2.93v1.47ZM50.17,39.86c-.2.48-.47.9-.83,1.25s-.79.63-1.29.83-1.06.3-1.68.3h-3.07v-7.91h3.07c.62,0,1.17.1,1.68.3s.94.47,1.29.83c.36.35.64.77.83,1.25.2.48.3,1.01.3,1.58s-.1,1.1-.3,1.58Z"/>
</svg>