<?xml version="1.0" encoding="UTF-8"?>
<svg id="Layer_1" data-name="Layer 1" xmlns="http://www.w3.org/2000/svg" width="64" height="64" viewBox="0 0 64 64">
  <defs>
    <style>
      .cls-1 {
        fill: #e2e8f0;
        stroke-width: 0px;
      }
    </style>
  </defs>
  <path class="cls-1" d="M50,32c0-.57-.2-1.05-.6-1.45-.37-.37-.83-.55-1.4-.55s-1.05.18-1.45.55c-.37.4-.55.88-.55,1.45s.18,1.03.55,1.4c.4.4.88.6,1.45.6s1.03-.2,1.4-.6c.4-.37.6-.83.6-1.4M50,24c0-.57-.2-1.05-.6-1.45-.37-.37-.83-.55-1.4-.55s-1.05.18-1.45.55c-.37.4-.55.88-.55,1.45s.18,1.03.55,1.4c.4.4.88.6,1.45.6s1.03-.2,1.4-.6c.4-.37.6-.83.6-1.4M42,32c0-.57-.2-1.05-.6-1.45-.37-.37-.83-.55-1.4-.55s-1.05.18-1.45.55c-.37.4-.55.88-.55,1.45s.18,1.03.55,1.4c.4.4.88.6,1.45.6s1.03-.2,1.4-.6c.4-.37.6-.83.6-1.4M34,32c0-.57-.2-1.05-.6-1.45-.37-.37-.83-.55-1.4-.55s-1.05.18-1.45.55c-.37.4-.55.88-.55,1.45s.18,1.03.55,1.4c.4.4.88.6,1.45.6s1.03-.2,1.4-.6c.4-.37.6-.83.6-1.4M34,24c0-.57-.2-1.05-.6-1.45-.37-.37-.83-.55-1.4-.55s-1.05.18-1.45.55c-.37.4-.55.88-.55,1.45s.18,1.03.55,1.4c.4.4.88.6,1.45.6s1.03-.2,1.4-.6c.4-.37.6-.83.6-1.4M42,24c0-.57-.2-1.05-.6-1.45-.37-.37-.83-.55-1.4-.55s-1.05.18-1.45.55c-.37.4-.55.88-.55,1.45s.18,1.03.55,1.4c.4.4.88.6,1.45.6s1.03-.2,1.4-.6c.4-.37.6-.83.6-1.4M16,16h32c5.33,0,8,2.67,8,8v16c0,5.33-2.67,8-8,8H16c-5.33,0-8-2.67-8-8v-16c0-5.33,2.67-8,8-8M18,40c0-.57-.2-1.05-.6-1.45-.37-.37-.83-.55-1.4-.55s-1.05.18-1.45.55c-.37.4-.55.88-.55,1.45s.18,1.03.55,1.4c.4.4.88.6,1.45.6s1.03-.2,1.4-.6c.4-.37.6-.83.6-1.4M26,40c0-.57-.2-1.05-.6-1.45-.37-.37-.83-.55-1.4-.55s-1.05.18-1.45.55c-.37.4-.55.88-.55,1.45s.18,1.03.55,1.4c.4.4.88.6,1.45.6s1.03-.2,1.4-.6c.4-.37.6-.83.6-1.4M26,32c0-.57-.2-1.05-.6-1.45-.37-.37-.83-.55-1.4-.55s-1.05.18-1.45.55c-.37.4-.55.88-.55,1.45s.18,1.03.55,1.4c.4.4.88.6,1.45.6s1.03-.2,1.4-.6c.4-.37.6-.83.6-1.4M26,24c0-.57-.2-1.05-.6-1.45-.37-.37-.83-.55-1.4-.55s-1.05.18-1.45.55c-.37.4-.55.88-.55,1.45s.18,1.03.55,1.4c.4.4.88.6,1.45.6s1.03-.2,1.4-.6c.4-.37.6-.83.6-1.4M18,32c0-.57-.2-1.05-.6-1.45-.37-.37-.83-.55-1.4-.55s-1.05.18-1.45.55c-.37.4-.55.88-.55,1.45s.18,1.03.55,1.4c.4.4.88.6,1.45.6s1.03-.2,1.4-.6c.4-.37.6-.83.6-1.4M18,24c0-.57-.2-1.05-.6-1.45-.37-.37-.83-.55-1.4-.55s-1.05.18-1.45.55c-.37.4-.55.88-.55,1.45s.18,1.03.55,1.4c.4.4.88.6,1.45.6s1.03-.2,1.4-.6c.4-.37.6-.83.6-1.4M42,40c0-.57-.2-1.05-.6-1.45-.37-.37-.83-.55-1.4-.55s-1.05.18-1.45.55c-.37.4-.55.88-.55,1.45s.18,1.03.55,1.4c.4.4.88.6,1.45.6s1.03-.2,1.4-.6c.4-.37.6-.83.6-1.4M34,40c0-.57-.2-1.05-.6-1.45-.37-.37-.83-.55-1.4-.55s-1.05.18-1.45.55c-.37.4-.55.88-.55,1.45s.18,1.03.55,1.4c.4.4.88.6,1.45.6s1.03-.2,1.4-.6c.4-.37.6-.83.6-1.4M50,40c0-.57-.2-1.05-.6-1.45-.37-.37-.83-.55-1.4-.55s-1.05.18-1.45.55c-.37.4-.55.88-.55,1.45s.18,1.03.55,1.4c.4.4.88.6,1.45.6s1.03-.2,1.4-.6c.4-.37.6-.83.6-1.4"/>
</svg>