<?xml version="1.0" encoding="UTF-8"?>
<svg id="Layer_1" data-name="Layer 1" xmlns="http://www.w3.org/2000/svg" width="64" height="64" viewBox="0 0 64 64">
  <defs>
    <style>
      .cls-1 {
        fill: #e2e8f0;
        stroke-width: 0px;
      }
    </style>
  </defs>
  <path class="cls-1" d="M10.85,10.8l.05-.05c.57-.5,1.27-.75,2.1-.75.77,0,1.45.25,2.05.75l.05.05c.6.57.9,1.23.9,2v4.45c0,.73-.3,1.4-.9,2l-.05.05c-.6.47-1.28.7-2.05.7-.83,0-1.53-.23-2.1-.7l-.05-.1c-.57-.57-.85-1.22-.85-1.95v-4.45c0-.77.28-1.43.85-2M12,12.8v4.45l.2.5.8.25.75-.25v.05l.25-.55v-4.45l-.25-.55v.05c-.2-.2-.45-.3-.75-.3s-.57.1-.8.3l.05-.1-.25.6M20.1,14l.35-.1.25-.2h.05l.25-.7-.3-.75c-.17-.17-.38-.25-.65-.25h-1.05v2h1.1M19,19l-.3.7c-.2.2-.43.3-.7.3l-.7-.3c-.2-.2-.3-.43-.3-.7v-8c0-.27.1-.5.3-.7.2-.2.43-.3.7-.3h2.05c.8,0,1.48.28,2.05.85.6.6.9,1.32.9,2.15s-.3,1.53-.9,2.1v.05l-.65.5-.1.05-1.25.3h-1.1v3M25,12l-.7-.3c-.2-.2-.3-.43-.3-.7s.1-.5.3-.7c.2-.2.43-.3.7-.3h4l.7.3.3.7-.3.7-.7.3h-1v7l-.3.7c-.2.2-.43.3-.7.3l-.7-.3-.3-.7v-7h-1M36,12.8v4.45l.2.5.8.25.75-.25v.05l.25-.55v-4.45l-.25-.55v.05c-.2-.2-.45-.3-.75-.3s-.57.1-.8.3l.05-.1-.25.6M34.85,10.8l.05-.05c.57-.5,1.27-.75,2.1-.75.77,0,1.45.25,2.05.75l.05.05c.6.57.9,1.23.9,2v4.45c0,.73-.3,1.4-.9,2l-.05.05c-.6.47-1.28.7-2.05.7-.83,0-1.53-.23-2.1-.7l-.05-.1c-.57-.57-.85-1.22-.85-1.95v-4.45c0-.77.28-1.43.85-2M33,19l-.3.7-.7.3c-.27,0-.5-.1-.7-.3-.2-.2-.3-.43-.3-.7v-8c0-.27.1-.5.3-.7.2-.2.43-.3.7-.3s.5.1.7.3l.3.7v8M41,12.8c0-.77.28-1.43.85-2l.05-.05c.57-.5,1.27-.75,2.1-.75.77,0,1.45.25,2.05.75l.05.05c.6.57.9,1.23.9,2v6.2l-.3.7-.7.3-.7-.3c-.2-.2-.3-.43-.3-.7v-6.2l-.25-.55v.05c-.2-.2-.45-.3-.75-.3s-.57.1-.8.3l.05-.1c-.17.17-.25.37-.25.6v6.2l-.3.7-.7.3-.7-.3c-.2-.2-.3-.43-.3-.7v-6.2M51,12c-.27,0-.5.1-.7.3-.2.2-.3.43-.3.7s.1.5.3.7l.65.3h.1c.77,0,1.45.3,2.05.9.6.6.9,1.3.9,2.1s-.3,1.5-.9,2.1c-.6.6-1.3.9-2.1.9h-2c-.27,0-.5-.1-.7-.3-.2-.2-.3-.43-.3-.7s.1-.5.3-.7c.2-.2.43-.3.7-.3h2c.27,0,.5-.1.7-.3l.3-.7-.3-.7c-.2-.2-.42-.3-.65-.3h-.1c-.77,0-1.45-.3-2.05-.9-.6-.6-.9-1.3-.9-2.1s.3-1.5.9-2.1c.6-.6,1.3-.9,2.1-.9h2c.27,0,.5.1.7.3l.3.7-.3.7-.7.3h-2M32,26c2.2,0,4.08.78,5.65,2.35,1.57,1.57,2.35,3.45,2.35,5.65v12l-.15,1.6c-.3,1.53-1.03,2.88-2.2,4.05-1.57,1.57-3.45,2.35-5.65,2.35s-4.08-.78-5.65-2.35c-1.17-1.17-1.9-2.52-2.2-4.05l-.15-1.6v-12c0-2.2.78-4.08,2.35-5.65,1.57-1.57,3.45-2.35,5.65-2.35"/>
</svg>