<?xml version="1.0" encoding="utf-8"?>
<!-- Generator: Adobe Illustrator 28.3.0, SVG Export Plug-In . SVG Version: 6.00 Build 0)  -->
<svg version="1.1" id="Layer_1" xmlns="http://www.w3.org/2000/svg" xmlns:xlink="http://www.w3.org/1999/xlink" x="0px" y="0px"
	 viewBox="0 0 64 64" style="enable-background:new 0 0 64 64;" xml:space="preserve">
<style type="text/css">
	.st0{fill:#E2E8F0;}
	.st1{fill:#E2E8F0;stroke:#E2E8F0;stroke-miterlimit:10;}
</style>
<g>
	<g>
		<path class="st0" d="M23.6,29.9c0.2,0.4,0.4,0.8,0.5,1.2c0.2-0.4,0.3-0.8,0.5-1.2c0.2-0.4,0.4-0.8,0.6-1.2l5.4-10.6
			c0.1-0.2,0.2-0.3,0.3-0.4s0.2-0.2,0.3-0.2c0.1,0,0.3-0.1,0.4-0.1h4.3v20.9h-4.3V26.3c0-0.6,0-1.2,0.1-1.9l-5.6,10.8
			c-0.2,0.3-0.4,0.6-0.7,0.8s-0.6,0.3-1,0.3h-0.7c-0.4,0-0.7-0.1-1-0.3s-0.5-0.4-0.7-0.8l-5.6-10.8c0,0.3,0.1,0.7,0.1,1s0,0.6,0,0.9
			v12.1h-4.3v-21h4.3c0.2,0,0.3,0,0.4,0.1s0.2,0.1,0.3,0.2s0.2,0.2,0.3,0.4l5.4,10.6C23.3,29.1,23.5,29.5,23.6,29.9L23.6,29.9z"/>
		<path class="st0" d="M44.5,27.5l-6.5-10.2h4.9c0.3,0,0.5,0,0.7,0.1s0.3,0.2,0.4,0.4l4.2,7.1c0-0.1,0.1-0.2,0.2-0.4
			c0.1-0.1,0.1-0.2,0.2-0.4l3.7-6.3c0.2-0.4,0.6-0.6,1-0.6h4.7l-6.6,10l6.7,11h-4.9c-0.3,0-0.6-0.1-0.8-0.2s-0.3-0.3-0.5-0.5
			l-4.2-7.3c-0.1,0.2-0.2,0.4-0.3,0.5l-3.9,6.8c-0.1,0.2-0.3,0.4-0.5,0.5s-0.4,0.2-0.7,0.2h-4.5L44.5,27.5L44.5,27.5z"/>
	</g>
	<polyline class="st1" points="6,17.8 6,44 32.2,44 32.2,42.5 7.6,42.5 7.6,17.8 	"/>
	<path class="st0" d="M38.5,42.7l-5.1-3c-0.4-0.2-0.8,0-0.8,0.5v5.9c0,0.4,0.5,0.7,0.8,0.5l5.1-3C38.9,43.4,38.9,42.9,38.5,42.7z"/>
</g>
</svg>
