<?xml version="1.0" encoding="UTF-8"?>
<svg id="Layer_1" data-name="Layer 1" xmlns="http://www.w3.org/2000/svg" width="64" height="64" viewBox="0 0 64 64">
  <defs>
    <style>
      .cls-1 {
        fill: #e2e8f0;
        stroke-width: 0px;
      }
    </style>
  </defs>
  <path class="cls-1" d="M21,25v17h4v-5h3l2.5,5h4l-3.05-6.1.75-.65.05-.05.95-1.2c.53-.9.8-1.9.8-3,0-1.67-.58-3.08-1.75-4.25l-.9-.75c-.97-.67-2.08-1-3.35-1h-7M43,25h-4l-3,3v1.95h3v12.05h4v-17M12,30c0-5.53,1.93-10.27,5.8-14.2,3.93-3.87,8.67-5.8,14.2-5.8s10.2,1.93,14.1,5.8c2.5,2.5,4.22,5.33,5.15,8.5l.55,2.6.2,2.7v16.85c-.1,1.8-.73,3.38-1.9,4.75l-.45.45-.2.2c-.97.9-2.03,1.52-3.2,1.85l-2.25.3h-24c-2.1,0-3.92-.72-5.45-2.15l-.2-.2c-1.57-1.57-2.35-3.45-2.35-5.65v-16M28,29c.53,0,1,.2,1.4.6.4.4.6.87.6,1.4s-.18.98-.55,1.35l-.1.1c-.37.37-.82.55-1.35.55h-3v-4h3"/>
</svg>