<?xml version="1.0" encoding="UTF-8"?>
<svg id="Layer_1" data-name="Layer 1" xmlns="http://www.w3.org/2000/svg" width="64" height="64" viewBox="0 0 64 64">
  <defs>
    <style>
      .cls-1 {
        fill: #e2e8f0;
      }

      .cls-1, .cls-2 {
        stroke-width: 0px;
      }

      .cls-2 {
        fill: #f87171;
      }
    </style>
  </defs>
  <path class="cls-1" d="M40,10v9.15c0,.57-.18,1.05-.55,1.45l-6,6c-.4.37-.88.55-1.45.55s-1.03-.18-1.4-.55l-6-6c-.4-.4-.6-.88-.6-1.45v-9.15c0-.57.2-1.03.6-1.4.37-.4.83-.6,1.4-.6h12c.57,0,1.05.2,1.45.6.37.37.55.83.55,1.4M33.45,37.45l6,6c.37.37.55.83.55,1.4v9.15c0,.57-.18,1.05-.55,1.45-.4.37-.88.55-1.45.55h-12c-.57,0-1.03-.18-1.4-.55-.4-.4-.6-.88-.6-1.45v-9.15c0-.57.2-1.03.6-1.4l6-6c.37-.4.83-.6,1.4-.6s1.05.2,1.45.6M19.15,40h-9.15c-.57,0-1.03-.18-1.4-.55-.4-.4-.6-.88-.6-1.45v-12c0-.57.2-1.03.6-1.4.37-.4.83-.6,1.4-.6h9.15c.57,0,1.05.2,1.45.6l6,6c.37.37.55.83.55,1.4s-.18,1.05-.55,1.45l-6,6c-.4.37-.88.55-1.45.55"/>
  <path class="cls-2" d="M56,26v12c0,.57-.18,1.05-.55,1.45-.4.37-.88.55-1.45.55h-9.15c-.57,0-1.03-.18-1.4-.55l-6-6c-.4-.4-.6-.88-.6-1.45s.2-1.03.6-1.4l6-6c.37-.4.83-.6,1.4-.6h9.15c.57,0,1.05.2,1.45.6.37.37.55.83.55,1.4"/>
</svg>