<?xml version="1.0" encoding="UTF-8"?>
<svg id="Layer_3" data-name="Layer 3" xmlns="http://www.w3.org/2000/svg" width="64" height="64" viewBox="0 0 64 64">
  <defs>
    <style>
      .cls-1 {
        stroke-width: 0px;
      }

      .cls-1, .cls-2 {
        fill: #e2e8f0;
      }

      .cls-2 {
        stroke: #e2e8f0;
        stroke-miterlimit: 10;
      }
    </style>
  </defs>
  <g>
    <path class="cls-1" d="M25.15,33.55c.18.39.35.8.51,1.21.16-.42.33-.83.52-1.23s.37-.78.56-1.16l5.37-10.6c.1-.18.19-.32.29-.42s.21-.18.34-.22c.12-.05.27-.07.42-.07h4.26v20.95h-4.28v-12.06c0-.58.03-1.22.09-1.9l-5.55,10.78c-.17.34-.41.59-.7.76-.29.17-.62.26-1,.26h-.66c-.37,0-.71-.09-1-.26-.29-.17-.52-.43-.7-.76l-5.58-10.79c.04.34.07.67.09,1,.02.33.03.64.03.91v12.06h-4.28v-20.95h4.26c.16,0,.3.02.42.07.12.05.24.12.34.22s.2.24.29.42l5.39,10.65c.19.37.38.74.55,1.14Z"/>
    <path class="cls-1" d="M51.31,34.03v7.97h-4.86v-7.97l-7.59-13h4.28c.42,0,.76.1,1.01.3s.45.45.6.76l2.96,6.1c.24.49.46.94.66,1.35.2.41.38.82.53,1.22.14-.41.32-.82.52-1.24s.42-.86.65-1.34l2.93-6.1c.06-.12.14-.25.24-.37s.22-.24.34-.34c.13-.1.28-.18.45-.24.17-.06.35-.09.55-.09h4.31l-7.59,13Z"/>
  </g>
  <polyline class="cls-2" points="7.78 21.7 7.78 47.9 33.97 47.9 33.97 46.34 9.34 46.34 9.34 21.7"/>
  <path class="cls-1" d="M8.13,16.37l-2.96,5.12c-.21.36.05.81.47.81h5.91c.41,0,.67-.45.47-.81l-2.96-5.12c-.21-.36-.73-.36-.93,0Z"/>
</svg>