<?xml version="1.0" encoding="UTF-8"?>
<svg id="Layer_1" data-name="Layer 1" xmlns="http://www.w3.org/2000/svg" width="64" height="64" viewBox="0 0 64 64">
  <defs>
    <style>
      .cls-1 {
        fill: #e2e8f0;
        stroke-width: 0px;
      }
    </style>
  </defs>
  <path class="cls-1" d="M55.33,24.11c-1.22-2.5-2.61-3.73-3.29-4.35-.71-.64-2.73-1.9-5.87-2.58-4.81-1.03-9.5-1.11-14.43-.43-4.24.59-7.95,2.15-9.49,2.88-2.4,1.13-5.43,2.38-8.62,5.12-2.21,1.89-4.12,3.53-5.39,6.47h0s.02.01.02.01c-.35.82-1.92,4.48-.42,9.21.43,1.38,2.31,4.49,3.89,5.41,1.17.67,2.26,1.63,4.89,1.82,1.74.12,4.44-.14,6.16-.72,1.41-.48,2.4-1.06,3.55-1.98,5.01-3.99,11.77-4.38,13.86-4.46,1.16-.05,1.54-.21,5.56-.03,3.65.16,5.93-.69,6.77-1.16,1.69-.95,2.83-2.69,3.34-4,.68-1.77.99-3.82.96-5.71-.02-.68-.27-3.04-1.47-5.51ZM39,24.71l-5.52,6.23v7.17h-3.15v-7.17l-5.52-6.23v-.79l1.77-1.58h.91l4.41,5.16,4.45-5.16h.87l1.77,1.58v.79Z"/>
</svg>