<?xml version="1.0" encoding="utf-8"?>
<!-- Generator: Adobe Illustrator 28.3.0, SVG Export Plug-In . SVG Version: 6.00 Build 0)  -->
<svg version="1.1" id="Layer_1" xmlns="http://www.w3.org/2000/svg" xmlns:xlink="http://www.w3.org/1999/xlink" x="0px" y="0px"
	 viewBox="0 0 64 64" style="enable-background:new 0 0 64 64;" xml:space="preserve">
<style type="text/css">
	.st0{fill:#F87171;}
</style>
<g>
	<path class="st0" d="M51.4,32c0,5.4-1.9,9.9-5.7,13.7c-3.7,3.8-8.3,5.7-13.7,5.7c-5.4,0-9.9-1.9-13.7-5.7
		c-3.8-3.7-5.7-8.3-5.7-13.7c0-5.4,1.9-9.9,5.7-13.7c3.8-3.8,8.4-5.7,13.7-5.7c5.4,0,9.9,1.9,13.7,5.7C49.5,22.1,51.4,26.6,51.4,32
		 M36,28.8c0,0.5-0.1,0.8-0.4,1.1h0c-0.3,0.3-0.7,0.5-1.1,0.5h-4.8v-3.2h4.8c0.4,0,0.8,0.1,1.1,0.4l0.1,0.1C35.9,28,36,28.3,36,28.8
		 M39.3,35.2c0-1.2-0.4-2.3-1.2-3.2c0.8-0.9,1.2-2,1.2-3.2c0-1.3-0.5-2.5-1.4-3.4l0,0c-0.9-0.9-2.1-1.4-3.4-1.4h-8.1v16.2h8.1
		c1.3,0,2.5-0.5,3.4-1.4l0,0C38.8,37.7,39.3,36.6,39.3,35.2 M36,35.2c0,0.4-0.1,0.8-0.4,1.1l-0.1,0.1c-0.3,0.3-0.7,0.4-1.1,0.4h-4.8
		v-3.2h4.8c0.4,0,0.8,0.2,1.1,0.5h0C35.9,34.4,36,34.8,36,35.2"/>
</g>
</svg>
