<?xml version="1.0" encoding="UTF-8"?>
<svg id="Layer_1" data-name="Layer 1" xmlns="http://www.w3.org/2000/svg" width="64" height="64" viewBox="0 0 64 64">
  <defs>
    <style>
      .cls-1 {
        fill: #e2e8f0;
        stroke-width: 0px;
      }
    </style>
  </defs>
  <circle class="cls-1" cx="32" cy="40.44" r="10.69"/>
  <g>
    <path class="cls-1" d="M12.25,22.29c.23,1,.95,1.45,2.11,1.45s1.65-.46,1.65-1.19c0-.81-.48-1.17-2.19-1.57-2.72-.64-3.4-1.63-3.4-2.98,0-1.74,1.3-2.93,3.67-2.93,2.66,0,3.71,1.43,3.86,2.89h-2.18c-.1-.62-.44-1.28-1.73-1.28-.88,0-1.41.36-1.41,1.07s.42.98,2.04,1.35c2.91.69,3.55,1.77,3.55,3.18,0,1.83-1.38,3.08-4.03,3.08s-3.88-1.25-4.12-3.07h2.18Z"/>
    <path class="cls-1" d="M21.91,16.99h-3.04v-1.77h8.23v1.77h-3.03v8.23h-2.17v-8.23Z"/>
    <path class="cls-1" d="M29.24,22.91l-.78,2.31h-2.13l3.4-10h2.72l3.54,10h-2.27l-.82-2.31h-3.65ZM32.43,21.14c-.71-2.11-1.16-3.46-1.41-4.36h-.01c-.25.99-.75,2.56-1.32,4.36h2.74Z"/>
    <path class="cls-1" d="M39.39,21.22v4h-2.11v-10h4.4c2.18,0,3.36,1.2,3.36,2.75,0,1.34-.73,2.07-1.45,2.37.5.18,1.24.7,1.24,2.49v.49c0,.67,0,1.44.14,1.91h-2.05c-.18-.44-.21-1.18-.21-2.25v-.15c0-1.09-.28-1.61-1.89-1.61h-1.42ZM39.39,19.5h1.81c1.18,0,1.64-.45,1.64-1.29s-.53-1.27-1.59-1.27h-1.87v2.56Z"/>
    <path class="cls-1" d="M49.06,16.99h-3.04v-1.77h8.23v1.77h-3.03v8.23h-2.17v-8.23Z"/>
  </g>
</svg>