<?xml version="1.0" encoding="utf-8"?>
<!-- Generator: Adobe Illustrator 28.3.0, SVG Export Plug-In . SVG Version: 6.00 Build 0)  -->
<svg version="1.1" id="Layer_1" xmlns="http://www.w3.org/2000/svg" xmlns:xlink="http://www.w3.org/1999/xlink" x="0px" y="0px"
	 viewBox="0 0 64 64" style="enable-background:new 0 0 64 64;" xml:space="preserve">
<style type="text/css">
	.st0{fill:#86EFAC;}
</style>
<g>
	<path class="st0" d="M56,32c0,6.7-2.4,12.3-7,17c-4.6,4.7-10.3,7-17,7c-6.6,0-12.3-2.4-17-7c-4.7-4.6-7-10.3-7-17
		c0-6.6,2.3-12.3,7-17c4.7-4.7,10.4-7,17-7c6.7,0,12.3,2.3,17,7C53.6,19.7,56,25.4,56,32 M38,42h4l-8-20h-4l-8,20h4l1.6-4h8.8L38,42
		 M32,27l2.8,7h-5.6L32,27"/>
</g>
</svg>
