<?xml version="1.0" encoding="UTF-8"?>
<svg id="Layer_1" data-name="Layer 1" xmlns="http://www.w3.org/2000/svg" width="64" height="64" viewBox="0 0 64 64">
  <defs>
    <style>
      .cls-1 {
        fill: #e2e8f0;
        stroke-width: 0px;
      }
    </style>
  </defs>
  <path class="cls-1" d="M46.25,31.78c-.58-4.24-2.14-7.95-2.87-9.49-1.14-2.4-2.39-5.43-5.12-8.62-1.89-2.21-3.53-4.13-6.47-5.4-.82-.35-4.48-1.93-9.21-.43-1.37.44-4.49,2.31-5.41,3.89-.67,1.17-1.63,2.26-1.82,4.89-.13,1.73.13,4.44.71,6.16.47,1.41,1.05,2.39,1.97,3.55,3.99,5.01,4.37,11.77,4.45,13.86.04,1.16.2,1.54.02,5.56-.17,3.65.68,5.93,1.15,6.77.94,1.68,2.68,2.83,3.99,3.34,1.77.69,3.82,1,5.71.97.67-.01,3.03-.26,5.51-1.46,2.49-1.21,3.73-2.6,4.35-3.28.64-.7,1.9-2.72,2.58-5.86h.02c1.04-4.81,1.12-9.5.45-14.43ZM38.9,26.94l-4.33,5.06,4.33,5.06v.72l-1.62,1.44h-.79l-4.08-4.69-4.04,4.69h-.83l-1.62-1.44v-.72l4.33-5.06-4.33-5.06v-.72l1.62-1.44h.83l4.04,4.73,4.08-4.73h.79l1.62,1.44v.72Z"/>
</svg>