<?xml version="1.0" encoding="UTF-8"?>
<svg id="Layer_1" data-name="Layer 1" xmlns="http://www.w3.org/2000/svg" width="64" height="64" viewBox="0 0 64 64">
  <defs>
    <style>
      .cls-1 {
        fill: #e7e5e4;
        stroke-width: 0px;
      }
    </style>
  </defs>
  <path class="cls-1" d="M23,6.91v14.61c0,.8-.65,1.44-1.44,1.44H6.94c-.8,0-1.44.65-1.44,1.44v15.11c0,.8.65,1.44,1.44,1.44h14.61c.8,0,1.44.65,1.44,1.44v14.64c0,.8.65,1.44,1.44,1.44h15.11c.8,0,1.44-.65,1.44-1.44v-14.61c0-.8.65-1.44,1.44-1.44h14.61c.8,0,1.44-.65,1.44-1.44v-15.11c0-.8-.65-1.44-1.44-1.44h-14.61c-.8,0-1.44-.65-1.44-1.44V6.94c0-.8-.65-1.44-1.44-1.44h-15.11c-.8,0-1.44.65-1.44,1.44v-.03ZM36.75,43.94c1.18,0,1.92,1.28,1.33,2.3l-4.75,8.23c-.59,1.02-2.07,1.02-2.66,0l-4.75-8.23c-.59-1.02.15-2.3,1.33-2.3h9.5Z"/>
</svg>