<?xml version="1.0" encoding="utf-8"?>
<!-- Generator: Adobe Illustrator 28.3.0, SVG Export Plug-In . SVG Version: 6.00 Build 0)  -->
<svg version="1.1" id="Layer_1" xmlns="http://www.w3.org/2000/svg" xmlns:xlink="http://www.w3.org/1999/xlink" x="0px" y="0px"
	 viewBox="0 0 64 64" style="enable-background:new 0 0 64 64;" xml:space="preserve">
<style type="text/css">
	.st0{opacity:0.99;fill:#E5E7EB;}
</style>
<path class="st0" d="M57.6,24.5c0,0-3.7-3-7.2-4.7c-7.4-3.6-17.6-2.9-21.2-1.9c-3.6,1-6.5,2.4-7.8,3.3C11.9,27.5,7.1,39.1,6.2,46.2
	v0.1c-0.1,0.4,0.4,0.7,0.9,0.5l1.6-0.8c17-8,48.7-20.5,48.7-20.5C57.8,25.4,57.9,24.9,57.6,24.5z M34.4,32.6h-7.2v-12H30v9.7h4.4
	L34.4,32.6L34.4,32.6z"/>
</svg>
