<?xml version="1.0" encoding="UTF-8"?>
<svg id="Layer_1" data-name="Layer 1" xmlns="http://www.w3.org/2000/svg" width="64" height="64" viewBox="0 0 64 64">
  <defs>
    <style>
      .cls-1 {
        fill: #e5e7eb;
        opacity: .99;
        stroke-width: 0px;
      }
    </style>
  </defs>
  <path class="cls-1" d="M32.61,22.75h-1.11v3.53h1.11c.38,0,.7-.05.96-.14.26-.1.48-.23.65-.4.17-.17.29-.37.37-.59.08-.23.11-.47.11-.73,0-.52-.17-.93-.51-1.23-.34-.29-.87-.44-1.58-.44Z"/>
  <path class="cls-1" d="M42.66,21.22c-1.31-.87-4.16-2.3-7.77-3.28-3.61-.99-13.79-1.75-21.23,1.86-3.5,1.76-7.22,4.71-7.22,4.71-.34.35-.25.92.11,1.09,0,0,31.73,12.47,48.69,20.46l1.64.77c.48.16.97-.15.88-.55v-.11c-.87-7.11-5.69-18.71-15.1-24.95ZM35.98,32.59c-.46,0-.79-.17-1-.52l-1.98-3.46c-.09-.15-.19-.26-.31-.33s-.28-.1-.49-.1h-.7v4.41h-2.76v-11.91h3.87c.86,0,1.6.09,2.2.27.61.18,1.1.42,1.49.74.38.32.66.69.84,1.12.17.43.26.9.26,1.41,0,.39-.05.75-.15,1.1s-.26.66-.46.95c-.2.29-.46.55-.75.78-.3.23-.64.42-1.03.56.19.09.36.21.52.34.16.14.3.3.42.5l2.53,4.14h-2.5Z"/>
</svg>