<?xml version="1.0" encoding="UTF-8"?>
<svg id="Layer_1" data-name="Layer 1" xmlns="http://www.w3.org/2000/svg" width="64" height="64" viewBox="0 0 64 64">
  <defs>
    <style>
      .cls-1 {
        fill: #fef08a;
      }

      .cls-1, .cls-2 {
        stroke-width: 0px;
      }

      .cls-2 {
        fill: rgba(254, 240, 138, 0);
      }
    </style>
  </defs>
  <path class="cls-2" d="M43,10.1v.25c0,1.33-.43,2.42-1.3,3.25l-.4.4c-.87.7-1.83,1.03-2.9,1h-12.8c-1.13,0-2.08-.33-2.85-1l-.5-.5c-.83-.83-1.25-1.88-1.25-3.15v-.25c.07-1.13.48-2.12,1.25-2.95l.05-.1L28.7.4c.87-.93,1.97-1.4,3.3-1.4,1.23-.03,2.33.42,3.3,1.35v.05l6.4,6.65.1.1c.73.83,1.13,1.82,1.2,2.95M30.85,2.5l-6.4,6.65c-.3.33-.45.73-.45,1.2s.15.85.45,1.15c.3.33.68.5,1.15.5h12.8c.43,0,.82-.17,1.15-.5.3-.3.45-.68.45-1.15s-.15-.87-.45-1.2l-6.4-6.65c-.33-.33-.72-.5-1.15-.5-.47,0-.85.17-1.15.5"/>
  <path class="cls-1" d="M30.85,2.5c.3-.33.68-.5,1.15-.5.43,0,.82.17,1.15.5l6.4,6.65c.3.33.45.73.45,1.2s-.15.85-.45,1.15c-.33.33-.72.5-1.15.5h-12.8c-.47,0-.85-.17-1.15-.5-.3-.3-.45-.68-.45-1.15s.15-.87.45-1.2l6.4-6.65M41.3,14l.4-.4c.87-.83,1.3-1.92,1.3-3.25v-.25c2.13.87,4.12,2.05,5.95,3.55,4.7,3.83,7.05,8.42,7.05,13.75v3.25c0,5.37-2.35,9.92-7.05,13.65-1.83,1.5-3.82,2.7-5.95,3.6v2.1c0,1.67-1.08,3.08-3.25,4.25-2.13,1.17-4.72,1.75-7.75,1.75s-5.58-.58-7.75-1.75-3.25-2.58-3.25-4.25v-2.1c-2.13-.9-4.13-2.1-6-3.6-4.67-3.73-7-8.28-7-13.65v-3.25c0-5.33,2.33-9.92,7-13.75,1.87-1.5,3.87-2.68,6-3.55v.25c0,1.27.42,2.32,1.25,3.15l.5.5c-1.93.77-3.72,1.8-5.35,3.1h.05c-3.53,2.87-5.35,6.3-5.45,10.3.07,4.03,1.87,7.45,5.4,10.25,4.03,3.23,8.9,4.85,14.6,4.85s10.55-1.6,14.55-4.8l.05-.05c3.53-2.83,5.33-6.25,5.4-10.25-.1-4-1.92-7.43-5.45-10.3-1.63-1.3-3.38-2.33-5.25-3.1M31.2,15h1.6c4.43.17,8.23,1.5,11.4,4h-.05c2.37,2,3.65,4.32,3.85,6.95v.1c-.2,2.63-1.47,4.92-3.8,6.85l-.2.15c-3.3,2.63-7.3,3.95-12,3.95s-8.83-1.35-12.2-4.05l-.1-.05c-2.27-1.93-3.5-4.2-3.7-6.8v-.05c.17-2.7,1.45-5.05,3.85-7.05l.1-.1c3.17-2.47,6.92-3.77,11.25-3.9M30,27v-4h3c.57,0,1.03.18,1.4.55.4.4.6.88.6,1.45s-.2,1.03-.6,1.4c-.37.4-.82.6-1.35.6h-3.05M33,30l1-.1v.1l1,3h3l-1.5-4.5c1-.97,1.5-2.13,1.5-3.5s-.5-2.55-1.5-3.55c-.97-.97-2.13-1.45-3.5-1.45h-6v13h3v-3h3"/>
</svg>