<?xml version="1.0" encoding="UTF-8"?>
<svg id="Layer_1" data-name="Layer 1" xmlns="http://www.w3.org/2000/svg" width="64" height="64" viewBox="0 0 64 64">
  <defs>
    <style>
      .cls-1 {
        fill: #fef08a;
      }

      .cls-1, .cls-2 {
        stroke-width: 0px;
      }

      .cls-2 {
        fill: rgba(254, 240, 138, 0);
      }
    </style>
  </defs>
  <path class="cls-1" d="M31.2,37c-4.43-.17-8.23-1.52-11.4-4.05l-.1-.05c-2.27-1.93-3.5-4.2-3.7-6.8v-.05c.17-2.7,1.45-5.05,3.85-7.05l.1-.1c3.37-2.6,7.38-3.9,12.05-3.9s8.83,1.33,12.2,4h-.05c2.37,2,3.65,4.32,3.85,6.95v.1c-.2,2.63-1.47,4.92-3.8,6.85l-.2.15c-3.1,2.47-6.83,3.78-11.2,3.95h-1.6M42.8,40.15l3.75-2.45.05-.05c3.53-2.83,5.33-6.25,5.4-10.25-.1-4-1.92-7.43-5.45-10.3-4-3.2-8.85-4.8-14.55-4.8s-10.57,1.6-14.6,4.8h.05c-3.53,2.87-5.35,6.3-5.45,10.3.07,4.03,1.87,7.45,5.4,10.25l3.85,2.5c-.17.43-.25.93-.25,1.5,0,1.23.42,2.3,1.25,3.2l.05.1,6.4,6.65c.87.93,1.97,1.4,3.3,1.4,1.23.03,2.33-.42,3.3-1.35v-.05l6.4-6.65.1-.1c.8-.9,1.2-1.97,1.2-3.2l-.2-1.5M43,50c0,1.67-1.08,3.08-3.25,4.25-2.13,1.17-4.72,1.75-7.75,1.75s-5.58-.58-7.75-1.75-3.25-2.58-3.25-4.25v-2.1c-2.13-.9-4.13-2.1-6-3.6-4.67-3.73-7-8.28-7-13.65v-3.25c0-5.33,2.33-9.92,7-13.75,4.7-3.77,10.37-5.65,17-5.65s12.32,1.88,16.95,5.65c4.7,3.83,7.05,8.42,7.05,13.75v3.25c0,5.37-2.35,9.92-7.05,13.65-1.83,1.5-3.82,2.7-5.95,3.6v2.1M33,30l1-.1v.1l1,3h3l-1.5-4.5c1-.97,1.5-2.13,1.5-3.5s-.5-2.55-1.5-3.55c-.97-.97-2.13-1.45-3.5-1.45h-6v13h3v-3h3M30,27v-4h3c.57,0,1.03.18,1.4.55.4.4.6.88.6,1.45s-.2,1.03-.6,1.4c-.37.4-.82.6-1.35.6h-3.05M30.85,49.5l-6.4-6.65c-.3-.33-.45-.73-.45-1.2l.05-.35.4-.8c.3-.33.68-.5,1.15-.5h12.8c.43,0,.82.17,1.15.5l.45.8v.35c0,.47-.15.87-.45,1.2l-6.4,6.65c-.33.33-.72.5-1.15.5-.47,0-.85-.17-1.15-.5"/>
  <path class="cls-2" d="M30.85,49.5c.3.33.68.5,1.15.5.43,0,.82-.17,1.15-.5l6.4-6.65c.3-.33.45-.73.45-1.2v-.35l-.45-.8c-.33-.33-.72-.5-1.15-.5h-12.8c-.47,0-.85.17-1.15.5l-.4.8-.05.35c0,.47.15.87.45,1.2l6.4,6.65M32.8,37h5.6c1.23-.03,2.33.43,3.3,1.4.5.5.87,1.08,1.1,1.75l.2,1.5c0,1.23-.4,2.3-1.2,3.2l-.1.1-6.4,6.65v.05c-.97.93-2.07,1.38-3.3,1.35-1.33,0-2.43-.47-3.3-1.4l-6.4-6.65-.05-.1c-.83-.9-1.25-1.97-1.25-3.2,0-.57.08-1.07.25-1.5.2-.63.53-1.18,1-1.65.87-1,1.98-1.5,3.35-1.5h7.2"/>
</svg>