<?xml version="1.0" encoding="UTF-8"?>
<svg id="Layer_1" data-name="Layer 1" xmlns="http://www.w3.org/2000/svg" width="64" height="64" viewBox="0 0 64 64">
  <defs>
    <style>
      .cls-1 {
        fill: #d8b4fe;
        stroke-width: 0px;
      }
    </style>
  </defs>
  <path class="cls-1" d="M48.27,23.05H15.73c-4.94,0-8.95,4.01-8.95,8.95s4.01,8.95,8.95,8.95h32.54c4.94,0,8.95-4.01,8.95-8.95s-4.01-8.95-8.95-8.95ZM36.02,27.46c0,.12-.02.24-.06.36s-.09.23-.16.33l-4.78,6.83h4.85v1.82h-7.85v-.91c0-.11.02-.21.06-.32.04-.11.09-.2.15-.29l4.79-6.85h-4.61v-1.82h7.61s0,.85,0,.85ZM49.76,34.24c-1.09,0-1.97-.88-1.97-1.97s.88-1.97,1.97-1.97,1.97.88,1.97,1.97-.88,1.97-1.97,1.97Z"/>
</svg>