<?xml version="1.0" encoding="UTF-8"?>
<svg id="Layer_1" data-name="Layer 1" xmlns="http://www.w3.org/2000/svg" width="64" height="64" viewBox="0 0 64 64">
  <defs>
    <style>
      .cls-1 {
        fill: #e2e8f0;
        stroke-width: 0px;
      }
    </style>
  </defs>
  <g>
    <path class="cls-1" d="M12.69,20.77c-.08.12-.16.21-.24.28-.08.06-.19.09-.33.09-.12,0-.24-.04-.38-.11-.14-.07-.29-.16-.46-.25-.17-.09-.37-.17-.59-.25s-.47-.11-.75-.11c-.49,0-.85.1-1.09.31-.24.21-.36.49-.36.84,0,.23.07.41.22.56.14.15.33.28.56.38s.5.21.8.3c.3.09.61.19.92.3.31.11.62.24.92.39.3.15.57.34.8.57.23.23.42.51.56.84.14.33.21.73.21,1.19,0,.52-.09,1-.27,1.45-.18.45-.44.84-.78,1.18-.34.34-.76.6-1.26.79s-1.07.29-1.7.29c-.35,0-.7-.04-1.06-.11-.36-.07-.71-.17-1.05-.3-.34-.13-.66-.29-.95-.46-.3-.18-.56-.38-.78-.6l.77-1.21c.06-.09.14-.17.24-.22.1-.06.21-.08.33-.08.15,0,.31.05.46.15.16.1.33.21.53.32.2.12.42.23.68.32.26.1.56.15.91.15.47,0,.84-.1,1.1-.31.26-.21.39-.54.39-.99,0-.26-.07-.47-.21-.64-.14-.16-.33-.3-.56-.41-.23-.11-.5-.2-.79-.28s-.6-.17-.91-.27-.62-.22-.91-.37c-.3-.15-.56-.34-.79-.58-.23-.24-.42-.54-.56-.89-.14-.36-.21-.79-.21-1.32,0-.42.08-.83.25-1.23.17-.4.42-.75.74-1.07.33-.31.73-.56,1.21-.75.48-.19,1.02-.28,1.64-.28.34,0,.68.03,1,.08s.63.13.93.24c.29.1.56.23.82.38.25.15.48.31.68.5l-.65,1.21Z"/>
    <path class="cls-1" d="M21.98,18.5v2h-4.59v2.61h3.52v1.92h-3.52v2.66h4.59v2h-7.2v-11.19h7.2Z"/>
    <path class="cls-1" d="M26.05,27.61h4.15v2.07h-6.74v-11.19h2.59v9.11Z"/>
    <path class="cls-1" d="M38.63,18.5v2h-4.59v2.61h3.52v1.92h-3.52v2.66h4.59v2h-7.2v-11.19h7.2Z"/>
    <path class="cls-1" d="M47.62,26.79c.06,0,.12.01.18.04.06.02.12.06.18.12l1.03,1.08c-.45.59-1.01,1.03-1.69,1.33-.68.3-1.48.45-2.41.45-.85,0-1.61-.14-2.28-.43s-1.24-.69-1.71-1.2c-.47-.51-.83-1.11-1.08-1.81-.25-.7-.38-1.46-.38-2.28s.14-1.6.43-2.3c.29-.7.69-1.3,1.2-1.81.51-.51,1.13-.9,1.85-1.18.72-.28,1.51-.42,2.37-.42.42,0,.81.04,1.19.11s.72.18,1.04.31c.32.13.62.29.89.47.27.18.51.38.72.6l-.88,1.17c-.06.07-.12.14-.2.2-.08.06-.18.09-.32.09-.09,0-.18-.02-.26-.06s-.17-.09-.26-.15c-.09-.06-.19-.12-.3-.19-.11-.07-.24-.13-.39-.19-.15-.06-.33-.11-.53-.15s-.44-.06-.71-.06c-.47,0-.9.08-1.29.25-.39.17-.72.4-1,.71s-.5.68-.65,1.12c-.16.44-.23.93-.23,1.48s.08,1.08.23,1.53.37.82.64,1.12c.27.3.58.54.94.7.36.16.74.24,1.15.24.24,0,.45-.01.64-.03.19-.02.38-.06.54-.12.17-.06.33-.13.48-.22.15-.09.3-.2.46-.33.06-.05.13-.09.2-.13s.15-.05.22-.05Z"/>
    <path class="cls-1" d="M58.31,18.5v2.06h-3.15v9.13h-2.59v-9.13h-3.15v-2.06h8.89Z"/>
  </g>
  <rect class="cls-1" x="6.62" y="33.82" width="50.76" height="13.76" rx="6.88" ry="6.88"/>
</svg>