<?xml version="1.0" encoding="utf-8"?>
<!-- Generator: Adobe Illustrator 28.3.0, SVG Export Plug-In . SVG Version: 6.00 Build 0)  -->
<svg version="1.1" id="Layer_1" xmlns="http://www.w3.org/2000/svg" xmlns:xlink="http://www.w3.org/1999/xlink" x="0px" y="0px"
	 viewBox="0 0 64 64" style="enable-background:new 0 0 64 64;" xml:space="preserve">
<style type="text/css">
	.st0{fill:#E7E5E4;}
</style>
<path class="st0" d="M57.1,23H42.5c-0.8,0-1.4-0.6-1.4-1.4V6.9c0-0.8-0.7-1.4-1.4-1.4H24.5c-0.8,0-1.4,0.7-1.4,1.4v14.6
	c0,0.8-0.6,1.4-1.4,1.4H6.9c-0.8,0-1.4,0.6-1.4,1.4v15.1c0,0.8,0.7,1.4,1.4,1.4h14.6c0.8,0,1.4,0.7,1.4,1.4V57
	c0,0.8,0.6,1.4,1.4,1.4h15.1c0.8,0,1.4-0.7,1.4-1.4V42.4c0-0.8,0.7-1.4,1.4-1.4H57c0.8,0,1.4-0.7,1.4-1.4V24.4
	C58.5,23.6,57.8,23,57.1,23L57.1,23z M20,36.8c0,1.2-1.3,1.9-2.3,1.3l-8.2-4.8c-1-0.6-1-2.1,0-2.7l8.2-4.8c1-0.6,2.3,0.1,2.3,1.3
	V36.8z"/>
</svg>
