<?xml version="1.0" encoding="UTF-8"?>
<svg id="Layer_1" data-name="Layer 1" xmlns="http://www.w3.org/2000/svg" width="64" height="64" viewBox="0 0 64 64">
  <defs>
    <style>
      .cls-1 {
        fill: #fca5a5;
        stroke-width: 0px;
      }
    </style>
  </defs>
  <path class="cls-1" d="M56,32c0,6.67-2.35,12.32-7.05,16.95-4.63,4.7-10.28,7.05-16.95,7.05s-12.3-2.35-17-7.05c-4.67-4.63-7-10.28-7-16.95s2.33-12.3,7-17c4.7-4.67,10.37-7,17-7s12.32,2.33,16.95,7c4.7,4.7,7.05,10.37,7.05,17M37,28c0,.57-.18,1.03-.55,1.4h-.05c-.4.4-.87.6-1.4.6h-6v-4h6c.53,0,.98.18,1.35.55l.1.1c.37.37.55.82.55,1.35M41,36c0-1.53-.5-2.87-1.5-4,1-1.13,1.5-2.47,1.5-4,0-1.63-.58-3.03-1.75-4.2l-.05-.05c-1.17-1.17-2.57-1.75-4.2-1.75h-10v20h10c1.63,0,3.03-.58,4.2-1.75l.05-.05c1.17-1.17,1.75-2.57,1.75-4.2M37,36c0,.53-.18.98-.55,1.35l-.1.1c-.37.37-.82.55-1.35.55h-6v-4h6c.53,0,1,.2,1.4.6h.05c.37.37.55.83.55,1.4"/>
</svg>