<?xml version="1.0" encoding="UTF-8"?>
<svg id="Layer_1" data-name="Layer 1" xmlns="http://www.w3.org/2000/svg" width="64" height="64" viewBox="0 0 64 64">
  <defs>
    <style>
      .cls-1 {
        fill: #e2e8f0;
        stroke-width: 0px;
      }
    </style>
  </defs>
  <g>
    <path class="cls-1" d="M15.88,20.77c-.08.12-.16.21-.24.28-.08.06-.19.09-.33.09-.12,0-.24-.04-.38-.11-.14-.07-.29-.16-.46-.25-.17-.09-.37-.17-.59-.25s-.47-.11-.75-.11c-.49,0-.85.1-1.09.31-.24.21-.36.49-.36.84,0,.23.07.41.22.56.14.15.33.28.56.38s.5.21.8.3c.3.09.61.19.92.3.31.11.62.24.92.39.3.15.57.34.8.57.23.23.42.51.56.84.14.33.21.73.21,1.19,0,.52-.09,1-.27,1.45-.18.45-.44.84-.78,1.18-.34.34-.76.6-1.26.79s-1.07.29-1.7.29c-.35,0-.7-.04-1.06-.11-.36-.07-.71-.17-1.05-.3-.34-.13-.66-.29-.95-.46-.3-.18-.56-.38-.78-.6l.77-1.21c.06-.09.14-.17.24-.22.1-.06.21-.08.33-.08.15,0,.31.05.46.15.16.1.33.21.53.32.2.12.42.23.68.32.26.1.56.15.91.15.47,0,.84-.1,1.1-.31.26-.21.39-.54.39-.99,0-.26-.07-.47-.21-.64-.14-.16-.33-.3-.56-.41-.23-.11-.5-.2-.79-.28s-.6-.17-.91-.27-.62-.22-.91-.37c-.3-.15-.56-.34-.79-.58-.23-.24-.42-.54-.56-.89-.14-.36-.21-.79-.21-1.32,0-.42.08-.83.25-1.23.17-.4.42-.75.74-1.07.33-.31.73-.56,1.21-.75.48-.19,1.02-.28,1.64-.28.34,0,.68.03,1,.08s.63.13.93.24c.29.1.56.23.82.38.25.15.48.31.68.5l-.65,1.21Z"/>
    <path class="cls-1" d="M26.09,18.5v2.06h-3.15v9.13h-2.6v-9.13h-3.15v-2.06h8.89Z"/>
    <path class="cls-1" d="M36.35,29.69h-2.01c-.22,0-.41-.05-.56-.16-.14-.11-.25-.24-.3-.4l-.66-1.95h-4.25l-.66,1.95c-.05.14-.15.27-.3.39s-.33.17-.55.17h-2.03l4.33-11.19h2.66l4.33,11.19ZM29.16,25.41h3.05l-1.03-3.06c-.07-.19-.14-.42-.23-.69s-.18-.55-.27-.86c-.08.31-.17.6-.25.87-.09.27-.17.5-.24.69l-1.03,3.05Z"/>
    <path class="cls-1" d="M39.85,25.55v4.14h-2.6v-11.19h3.64c.81,0,1.5.08,2.07.25.57.17,1.04.4,1.4.69.36.3.62.65.79,1.05s.25.84.25,1.32c0,.36-.05.71-.15,1.03-.1.32-.24.62-.43.89-.19.27-.43.52-.71.73s-.6.39-.96.53c.17.09.34.2.49.32.15.13.28.28.39.47l2.38,3.89h-2.35c-.44,0-.75-.16-.94-.49l-1.86-3.25c-.08-.14-.18-.25-.29-.31-.11-.06-.26-.09-.46-.09h-.66ZM39.85,23.76h1.04c.35,0,.65-.04.9-.13.25-.09.45-.21.61-.37.16-.16.27-.34.34-.56.07-.21.11-.44.11-.69,0-.49-.16-.88-.48-1.15s-.82-.42-1.49-.42h-1.04v3.32Z"/>
    <path class="cls-1" d="M55.12,18.5v2.06h-3.15v9.13h-2.59v-9.13h-3.15v-2.06h8.89Z"/>
  </g>
  <rect class="cls-1" x="6.62" y="33.82" width="50.76" height="13.76" rx="6.88" ry="6.88"/>
</svg>