<?xml version="1.0" encoding="UTF-8"?>
<svg id="Layer_1" data-name="Layer 1" xmlns="http://www.w3.org/2000/svg" width="64" height="64" viewBox="0 0 64 64">
  <defs>
    <style>
      .cls-1 {
        fill: #e7e5e4;
        stroke-width: 0px;
      }
    </style>
  </defs>
  <path class="cls-1" d="M6.91,40.97h14.61c.8,0,1.44.65,1.44,1.44v14.62c0,.8.65,1.44,1.44,1.44h15.11c.8,0,1.44-.65,1.44-1.44v-14.61c0-.8.65-1.44,1.44-1.44h14.64c.8,0,1.44-.65,1.44-1.44v-15.11c0-.8-.65-1.44-1.44-1.44h-14.61c-.8,0-1.44-.65-1.44-1.44V6.94c0-.8-.65-1.44-1.44-1.44h-15.11c-.8,0-1.44.65-1.44,1.44v14.61c0,.8-.65,1.44-1.44,1.44H6.94c-.8,0-1.44.65-1.44,1.44v15.11c0,.8.65,1.44,1.44,1.44h-.03ZM43.94,27.22c0-1.18,1.28-1.92,2.3-1.33l8.23,4.75c1.02.59,1.02,2.07,0,2.66l-8.23,4.75c-1.02.59-2.3-.15-2.3-1.33v-9.5Z"/>
</svg>