<?xml version="1.0" encoding="UTF-8"?>
<svg id="Layer_1" data-name="Layer 1" xmlns="http://www.w3.org/2000/svg" width="64" height="64" viewBox="0 0 64 64">
  <defs>
    <style>
      .cls-1 {
        fill: #e2e8f0;
        stroke-width: 0px;
      }
    </style>
  </defs>
  <path class="cls-1" d="M45.47,21.58l-17.34,13.97c-2.94,2.37-7.24,1.91-9.61-1.03h0c-2.37-2.94-1.91-7.24,1.03-9.61l17.34-13.97c2.94-2.37,7.24-1.91,9.61,1.03s1.91,7.24-1.03,9.61Z"/>
  <g>
    <path class="cls-1" d="M14.72,41.79c-.09.12-.18.21-.26.27-.09.06-.2.08-.32.08s-.24-.04-.35-.12c-.12-.08-.25-.16-.4-.25-.15-.09-.31-.18-.5-.25-.19-.08-.41-.12-.67-.12-.24,0-.44.03-.62.1s-.32.16-.44.28c-.12.12-.21.26-.27.42-.06.16-.09.33-.09.52,0,.21.06.38.17.51.12.14.27.26.46.37.19.1.41.2.65.29.24.09.49.18.74.28s.5.22.74.35.46.3.65.5c.19.2.35.44.46.72s.17.62.17,1.01c0,.56-.1,1.09-.29,1.59s-.47.93-.84,1.3-.8.67-1.32.88c-.52.22-1.1.33-1.75.33-.32,0-.65-.04-.97-.11-.33-.07-.64-.17-.94-.3-.3-.13-.58-.29-.83-.46-.26-.18-.47-.38-.65-.6l.89-1.17c.07-.09.15-.16.26-.21.11-.06.21-.08.32-.08.14,0,.28.05.42.15s.29.21.45.33c.16.12.35.23.57.33.22.1.48.15.8.15.47,0,.83-.13,1.08-.38.25-.25.38-.63.38-1.12,0-.23-.06-.42-.17-.57s-.27-.27-.45-.38c-.19-.1-.4-.19-.64-.27-.24-.08-.49-.17-.74-.26s-.5-.2-.74-.33c-.24-.12-.45-.29-.64-.49-.19-.2-.34-.45-.45-.75-.12-.29-.17-.66-.17-1.09,0-.5.09-.97.28-1.43s.45-.86.8-1.22c.35-.35.77-.63,1.27-.84.5-.21,1.05-.32,1.67-.32.32,0,.63.03.93.1s.58.16.84.28c.26.12.5.26.71.42s.4.34.54.53l-.75,1.03Z"/>
    <path class="cls-1" d="M23.3,41.47h-4.14l-.34,2.7h3.17l-.25,1.86h-3.16l-.34,2.77h4.17l-.25,1.93h-6.68l1.38-11.19h6.66l-.25,1.93Z"/>
    <path class="cls-1" d="M26.2,48.74h3.76l-.25,2h-6.27l1.38-11.19h2.5l-1.14,9.19Z"/>
    <path class="cls-1" d="M38.59,41.47h-4.14l-.34,2.7h3.17l-.25,1.86h-3.16l-.34,2.77h4.17l-.25,1.93h-6.68l1.38-11.19h6.66l-.25,1.93Z"/>
    <path class="cls-1" d="M43.62,48.8c.28,0,.53-.02.73-.07.21-.04.38-.1.53-.17s.27-.14.38-.22c.1-.08.19-.15.28-.22.08-.07.16-.12.23-.17.07-.04.15-.07.23-.07s.15.01.2.04c.05.03.09.06.12.1l.88,1.05c-.49.58-1.06,1.02-1.73,1.32-.67.3-1.43.45-2.28.45-.71,0-1.33-.12-1.88-.37-.54-.25-1-.59-1.38-1.02-.37-.43-.66-.95-.85-1.55-.19-.6-.29-1.24-.29-1.93,0-.64.07-1.25.21-1.82s.35-1.1.61-1.59c.26-.49.58-.92.94-1.31.37-.39.77-.72,1.22-.99.45-.27.92-.48,1.44-.62.51-.15,1.05-.22,1.6-.22.42,0,.8.04,1.15.12.35.08.66.19.94.33.28.14.53.31.75.5.22.19.41.41.58.64l-.88,1.01c-.06.07-.13.14-.21.19-.08.06-.19.08-.32.08-.09,0-.17-.02-.24-.06s-.14-.09-.22-.15c-.07-.06-.16-.12-.25-.2-.09-.07-.2-.14-.33-.2-.13-.06-.28-.11-.46-.15-.18-.04-.39-.06-.63-.06-.47,0-.91.1-1.32.3-.41.2-.76.49-1.06.86-.3.37-.53.82-.7,1.35-.17.53-.25,1.12-.25,1.78,0,.48.06.9.17,1.27.12.37.27.69.47.95.2.26.44.46.71.59.28.13.58.2.9.2Z"/>
    <path class="cls-1" d="M56.74,39.55l-.26,1.98h-2.84l-1.14,9.21h-2.49l1.12-9.21h-2.86l.25-1.98h8.21Z"/>
  </g>
</svg>