<?xml version="1.0" encoding="UTF-8"?>
<svg id="Layer_1" data-name="Layer 1" xmlns="http://www.w3.org/2000/svg" width="64" height="64" viewBox="0 0 64 64">
  <defs>
    <style>
      .cls-1 {
        fill: #e2e8f0;
        stroke-width: 0px;
      }
    </style>
  </defs>
  <path class="cls-1" d="M45.47,21.58l-17.34,13.97c-2.94,2.37-7.24,1.91-9.61-1.03h0c-2.37-2.94-1.91-7.24,1.03-9.61l17.34-13.97c2.94-2.37,7.24-1.91,9.61,1.03s1.91,7.24-1.03,9.61Z"/>
  <g>
    <path class="cls-1" d="M17.68,41.79c-.09.12-.18.21-.26.27-.09.06-.2.08-.32.08s-.24-.04-.35-.12c-.12-.08-.25-.16-.4-.25-.15-.09-.31-.18-.5-.25-.19-.08-.41-.12-.67-.12-.24,0-.44.03-.62.1s-.32.16-.44.28c-.12.12-.21.26-.27.42-.06.16-.09.33-.09.52,0,.21.06.38.17.51.12.14.27.26.46.37.19.1.41.2.65.29.24.09.49.18.74.28s.5.22.74.35.46.3.65.5c.19.2.35.44.46.72s.17.62.17,1.01c0,.56-.1,1.09-.29,1.59s-.47.93-.84,1.3-.8.67-1.32.88c-.52.22-1.1.33-1.75.33-.32,0-.65-.04-.97-.11-.33-.07-.64-.17-.94-.3-.3-.13-.58-.29-.83-.46-.26-.18-.47-.38-.65-.6l.89-1.17c.07-.09.15-.16.26-.21.11-.06.21-.08.32-.08.14,0,.28.05.42.15s.29.21.45.33c.16.12.35.23.57.33.22.1.48.15.8.15.47,0,.83-.13,1.08-.38.25-.25.38-.63.38-1.12,0-.23-.06-.42-.17-.57s-.27-.27-.45-.38c-.19-.1-.4-.19-.64-.27-.24-.08-.49-.17-.74-.26s-.5-.2-.74-.33c-.24-.12-.45-.29-.64-.49-.19-.2-.34-.45-.45-.75-.12-.29-.17-.66-.17-1.09,0-.5.09-.97.28-1.43s.45-.86.8-1.22c.35-.35.77-.63,1.27-.84.5-.21,1.05-.32,1.67-.32.32,0,.63.03.93.1s.58.16.84.28c.26.12.5.26.71.42s.4.34.54.53l-.75,1.03Z"/>
    <path class="cls-1" d="M27.39,39.55l-.26,1.98h-2.84l-1.14,9.21h-2.49l1.12-9.21h-2.86l.25-1.98h8.21Z"/>
    <path class="cls-1" d="M35.26,50.73h-1.93c-.21,0-.39-.05-.52-.15-.13-.1-.21-.23-.23-.4l-.34-2.01h-3.8l-.83,2.01c-.06.14-.17.27-.33.38-.16.11-.35.17-.55.17h-1.97l5.34-11.19h2.56l2.6,11.19ZM29.13,46.47h2.81l-.54-3.19c-.05-.27-.1-.54-.15-.81s-.1-.52-.13-.75c-.04.12-.09.26-.16.42-.07.16-.13.31-.2.46-.06.15-.12.29-.18.41-.06.13-.1.22-.13.28l-1.31,3.18Z"/>
    <path class="cls-1" d="M38.9,46.56l-.51,4.18h-2.49l1.37-11.19h3.39c.69,0,1.27.07,1.75.22.48.15.88.35,1.19.6.31.26.53.56.67.91s.21.73.21,1.14-.05.81-.17,1.17c-.11.37-.27.71-.48,1.02s-.47.58-.77.82c-.3.24-.65.43-1.04.59.15.09.3.19.43.31s.24.28.32.46l1.63,3.94h-2.26c-.21,0-.39-.04-.53-.12s-.24-.2-.3-.35l-1.21-3.31c-.06-.14-.13-.24-.23-.3-.09-.06-.23-.09-.42-.09h-.56ZM39.53,41.41l-.42,3.42h.91c.36,0,.66-.05.91-.17.25-.11.45-.26.61-.44.16-.18.27-.4.34-.64.07-.25.1-.5.1-.78,0-.21-.03-.4-.09-.57-.06-.17-.16-.32-.29-.44s-.29-.21-.49-.28-.43-.1-.7-.1h-.89Z"/>
    <path class="cls-1" d="M53.78,39.55l-.26,1.98h-2.84l-1.14,9.21h-2.49l1.12-9.21h-2.86l.25-1.98h8.21Z"/>
  </g>
</svg>