<?xml version="1.0" encoding="UTF-8"?>
<svg id="Layer_1" data-name="Layer 1" xmlns="http://www.w3.org/2000/svg" width="64" height="64" viewBox="0 0 64 64">
  <defs>
    <style>
      .cls-1 {
        fill: #c4b5fd;
        stroke-width: 0px;
      }
    </style>
  </defs>
  <path class="cls-1" d="M32,8c-13.25,0-24,10.75-24,24s10.75,24,24,24,24-10.75,24-24-10.75-24-24-24ZM34.75,34.14v9.02h-5.5v-9.02l-8.59-14.69h4.85c.48,0,.86.11,1.14.33.28.22.51.51.68.85l3.35,6.9c.27.55.52,1.06.75,1.53.23.47.43.93.6,1.38.16-.47.36-.93.59-1.4.23-.47.47-.97.73-1.51l3.32-6.9c.06-.14.15-.28.27-.42.11-.14.24-.27.39-.38s.31-.21.5-.28c.19-.07.4-.11.63-.11h4.88l-8.59,14.69Z"/>
</svg>