<?xml version="1.0" encoding="UTF-8"?>
<svg id="Layer_1" data-name="Layer 1" xmlns="http://www.w3.org/2000/svg" width="64" height="64" viewBox="0 0 64 64">
  <defs>
    <style>
      .cls-1 {
        fill: #a78bfa;
        stroke-width: 0px;
      }
    </style>
  </defs>
  <path class="cls-1" d="M32.58,26.15c-.19-.56-.38-1.16-.56-1.81-.17.66-.35,1.27-.54,1.84-.18.56-.36,1.05-.52,1.46l-2.18,6.46h6.48l-2.18-6.49c-.14-.41-.31-.9-.5-1.46Z"/>
  <path class="cls-1" d="M32,8c-13.25,0-24,10.75-24,24s10.75,24,24,24,24-10.75,24-24-10.75-24-24-24ZM39.75,43.16c-.48,0-.87-.11-1.18-.33-.31-.22-.52-.51-.64-.85l-1.4-4.13h-9.01l-1.4,4.13c-.11.3-.32.58-.63.82-.32.24-.7.37-1.16.37h-4.3l9.18-23.71h5.63l9.18,23.71h-4.26Z"/>
</svg>