<?xml version="1.0" encoding="UTF-8"?>
<svg id="Layer_1" data-name="Layer 1" xmlns="http://www.w3.org/2000/svg" width="64" height="64" viewBox="0 0 64 64">
  <defs>
    <style>
      .cls-1 {
        fill: #a78bfa;
        stroke-width: 0px;
      }
    </style>
  </defs>
  <path class="cls-1" d="M32,8c-13.25,0-24,10.75-24,24s10.75,24,24,24,24-10.75,24-24-10.75-24-24-24ZM41.05,38.83c-.39.87-.96,1.62-1.72,2.27s-1.68,1.15-2.79,1.51c-1.11.36-2.37.54-3.79.54h-9.47v-23.71h8.72c1.64,0,3.03.15,4.18.46,1.15.3,2.09.73,2.82,1.29.73.55,1.26,1.23,1.59,2.02.33.79.5,1.68.5,2.65,0,.53-.08,1.04-.23,1.54-.15.49-.39.96-.72,1.39-.33.43-.74.83-1.25,1.18s-1.12.66-1.84.92c1.56.38,2.72,1,3.47,1.85.75.85,1.12,1.94,1.12,3.28,0,1.01-.2,1.95-.59,2.81Z"/>
  <path class="cls-1" d="M35.44,33.85c-.28-.24-.64-.42-1.1-.55-.46-.13-1.03-.2-1.72-.2h-3.84v5.91h3.87c.73,0,1.32-.09,1.78-.28.46-.18.82-.42,1.08-.72.26-.29.44-.62.54-.99s.15-.74.15-1.12c0-.43-.06-.82-.17-1.17-.11-.35-.31-.64-.59-.88Z"/>
  <path class="cls-1" d="M33.29,29.29c.49-.09.9-.24,1.25-.46.34-.22.6-.52.78-.9.18-.38.27-.86.27-1.43s-.07-1.03-.21-1.41c-.14-.37-.36-.68-.65-.9-.29-.23-.66-.39-1.11-.49s-.98-.15-1.6-.15h-3.22v5.86h2.86c.61,0,1.16-.04,1.64-.13Z"/>
</svg>