<?xml version="1.0" encoding="UTF-8"?>
<svg id="Layer_1" data-name="Layer 1" xmlns="http://www.w3.org/2000/svg" width="64" height="64" viewBox="0 0 64 64">
  <defs>
    <style>
      .cls-1 {
        fill: #c4b5fd;
        stroke-width: 0px;
      }
    </style>
  </defs>
  <path class="cls-1" d="M32,8c-13.25,0-24,10.75-24,24s10.75,24,24,24,24-10.75,24-24-10.75-24-24-24ZM37.92,43.16c-.36,0-.65-.09-.87-.26-.22-.17-.4-.38-.53-.62l-4.75-8.3c-.09.24-.18.44-.29.62l-4.43,7.68c-.13.23-.3.43-.52.61-.22.18-.49.27-.81.27h-5.14l7.63-12.19-7.34-11.52h5.5c.36,0,.62.05.79.14.17.09.32.25.45.46l4.72,7.99c.05-.14.12-.28.19-.41.07-.13.15-.27.24-.41l4.13-7.09c.27-.46.64-.68,1.11-.68h5.27l-7.44,11.28,7.6,12.43h-5.5Z"/>
</svg>